<svg height="105" viewBox="0 0 121.145 105" width="121.145" xmlns="http://www.w3.org/2000/svg"><g fill="none" transform="translate(445)"><path d="m-392.5 105a52.171 52.171 0 0 1 -20.435-4.126 52.323 52.323 0 0 1 -16.688-11.251 52.325 52.325 0 0 1 -11.251-16.688 52.174 52.174 0 0 1 -4.126-20.435 52.172 52.172 0 0 1 4.126-20.435 52.325 52.325 0 0 1 11.251-16.688 52.325 52.325 0 0 1 16.688-11.251 52.171 52.171 0 0 1 20.435-4.126 52.17 52.17 0 0 1 20.435 4.126 52.326 52.326 0 0 1 16.688 11.251 52.325 52.325 0 0 1 11.251 16.688 52.17 52.17 0 0 1 4.126 20.435 52.172 52.172 0 0 1 -4.126 20.436 52.325 52.325 0 0 1 -11.251 16.688 52.325 52.325 0 0 1 -16.688 11.251 52.17 52.17 0 0 1 -20.435 4.125zm0-20.779h3.973c8.987 0 16.291-.086 21.707-1.167 6.018-1.2 8.82-3.522 8.82-7.3a11.621 11.621 0 0 0 -2.711-6.842 27.964 27.964 0 0 0 -7.393-6.47 43.822 43.822 0 0 0 -10.966-4.819 48.484 48.484 0 0 0 -13.43-1.892 48.484 48.484 0 0 0 -13.429 1.891 43.822 43.822 0 0 0 -10.966 4.819 27.963 27.963 0 0 0 -7.393 6.47 11.621 11.621 0 0 0 -2.712 6.842c0 3.781 2.8 6.1 8.82 7.3 5.415 1.081 12.72 1.167 21.706 1.167h3.973zm-1.218-72.221a22.036 22.036 0 0 0 -14.35 5.074 17.4 17.4 0 0 0 -4.349 5.507 15.069 15.069 0 0 0 -1.595 6.743 23.055 23.055 0 0 0 1.595 7.869 32.789 32.789 0 0 0 4.349 7.983 25.19 25.19 0 0 0 6.451 6.189 14.59 14.59 0 0 0 7.9 2.487 14.589 14.589 0 0 0 7.9-2.487 25.192 25.192 0 0 0 6.451-6.189 32.79 32.79 0 0 0 4.349-7.983 23.053 23.053 0 0 0 1.595-7.869 15.068 15.068 0 0 0 -1.595-6.743 17.4 17.4 0 0 0 -4.349-5.507 22.036 22.036 0 0 0 -14.352-5.074z"/><path d="m-392.49990845 104.00032806c6.95269776 0 13.69696045-1.36153411 20.04553223-4.04677581 6.13241577-2.59385682 11.6401062-6.30737305 16.37008667-11.03741455 4.7300415-4.73007203 8.44351196-10.23785401 11.037323-16.37036896 2.6852417-6.34864044 4.04675293-13.09311676 4.04675293-20.04607392 0-6.95271301-1.36151123-13.69701385-4.04675293-20.04553985-2.59378052-6.13232994-6.30725098-11.64001656-11.03729248-16.37008667-4.73001099-4.72998619-10.23770142-8.44347191-16.37011719-11.03731489-6.34848023-2.68521405-13.09277344-4.04674268-20.04553223-4.04674268-6.95297241 0-13.69738769 1.36152863-20.04592895 4.04674268-6.13238526 2.59381437-11.64004517 6.30730009-16.37002564 11.03731489-4.72991943 4.72994232-8.44335937 10.23762894-11.03710937 16.37007141-2.68515015 6.34854126-4.04663086 13.0928421-4.04663086 20.04555511 0 6.95295716 1.36148071 13.69744111 4.04663086 20.04608918 2.59375 6.13256836 6.30718994 11.64035797 11.03710937 16.3703537 4.72988892 4.7300415 10.23754883 8.44355773 16.37002564 11.03741455 6.34860229 2.6852417 13.09301758 4.04677581 20.04592895 4.04677581m0-18.77922058c-.6232605 0-1.24221801.00035858-1.85684204.00073242l-.0548706.00003052-.10394287.00006867-.01519776.00001526-.18984985.00011444c-.58810425.00035858-1.1722107.0007019-1.75234986.0007019-9.04263305 0-16.39721679-.08735657-21.90213012-1.18638611-3.2034607-.63953399-5.52874756-1.58631897-7.10870362-2.89443207-1.66937255-1.38215637-2.5158081-3.19526672-2.5158081-5.38896942 0-2.37087249 1.00830078-4.94651794 2.91589355-7.44850158 1.83178711-2.40258789 4.48004151-4.72340012 7.65838623-6.71151352 3.29589844-2.06161499 7.17556763-3.7672844 11.2196045-4.93260193 3.64776611-1.05114365 7.40872192-1.67690659 11.21179199-1.8673172-2.42285156-.22546005-4.82641602-1.09227753-7.16186524-2.58519364-2.40386963-1.53667449-4.72567749-3.76181411-6.7144165-6.43490219-1.85076904-2.48762893-3.40112305-5.33352661-4.48348999-8.2300415-1.08468628-2.90267181-1.65802002-5.74478722-1.65802002-8.21910095 0-2.49417115.57150269-4.91232872 1.69866943-7.18731499 1.08251953-2.18479919 2.62878418-4.14402771 4.59591675-5.82325554 4.01385498-3.42648601 9.3407898-5.31352901 14.99951172-5.31352901 5.65838623 0 10.98522949 1.887043 14.99920654 5.31351375 1.96713257 1.67922783 3.51348877 3.638443 4.59609986 5.82324219 1.12722778 2.27498627 1.6987915 4.6931572 1.6987915 7.1873436 0 2.47432899-.57336426 5.31645584-1.65814209 8.21912765-1.08251953 2.89661408-2.63296509 5.74251557-4.48370361 8.23003006-1.98880005 2.67308426-4.31063843 4.89824295-6.71441651 6.43488693-2.16671753 1.38506318-4.39166259 2.2311821-6.63650512 2.52624894 4.45288086.05206298 8.86474609.69943237 13.12219238 1.9262619 4.04403686 1.16531753 7.92370605 2.87098694 11.21960449 4.93260193 3.17837525 1.98815536 5.82659912 4.30895614 7.65838623 6.71149826 1.90759278 2.50198364 2.91589356 5.07762909 2.91589356 7.44851684 0 2.19371033-.84643555 4.00684357-2.51583863 5.3890152-1.57995605 1.30812836-3.9052124 2.25492859-7.10870361 2.89447022-5.50521851 1.09908294-12.85986328 1.18643951-21.90255737 1.18643951-.59976197 0-1.20370484-.00039673-1.81192017-.00080109l-.07443237-.00003814-.07028198-.00006104c-.66677857-.00045776-1.33877564-.00090027-2.0159607-.00090027m0 19.77922058c-7.08749389 0-13.96295166-1.38811493-20.43548584-4.12577819-6.25164795-2.6442566-11.86618042-6.42975617-16.68759155-11.25131226-4.82141113-4.82149506-8.60681152-10.43612671-11.25100708-16.68791199-2.73754883-6.47254181-4.12561035-13.34809875-4.12561035-20.4356308 0-7.08731079 1.38806152-13.96266937 4.12561035-20.43509674 2.64419556-6.25164413 6.42959595-11.86618805 11.25100708-16.68763065 4.82150269-4.82154274 10.43600464-8.60698509 16.68759155-11.25121403 6.47247315-2.73764264 13.34796143-4.1257427 20.43548584-4.1257427 7.08731079 0 13.962677 1.38810006 20.43508911 4.1257427 6.25158692 2.64424324 11.86611939 6.4296856 16.68765259 11.25121403 4.82153321 4.82152843 8.60699463 10.43605709 11.25119019 16.68763065 2.73764038 6.47241211 4.12576294 13.34777069 4.12576294 20.43509674 0 7.08757401-1.38812256 13.96310425-4.12576294 20.4356308-2.64419556 6.25167084-6.42962647 11.86630249-11.25119019 16.68791199-4.82147217 4.8215332-10.43600464 8.60703278-16.68765259 11.25131226-6.47247314 2.73766326-13.34780883 4.12577819-20.43508911 4.12577819zm0-20.77922058c.6774292 0 1.3496399.00044251 2.0166626.00090027l.07037354.00006104c.63311767.00041198 1.26159668.00083923 1.88555908.00083923 8.98672485 0 16.29138183-.0859375 21.70675659-1.16708374 6.01763916-1.20137024 8.82034302-3.52189636 8.82034302-7.30284119 0-2.14990234-.93746949-4.51589965-2.71112061-6.84220123-1.75952148-2.30778503-4.31616211-4.54508209-7.39349365-6.47001266-3.21820068-2.01303101-7.01022339-3.67957306-10.96615601-4.81949997-4.35351562-1.25450135-8.87164306-1.8905716-13.42892456-1.8905716-4.55728149 0-9.07540893.63607025-13.42892456 1.8905716-3.95593262 1.13992691-7.74795532 2.80646896-10.966156 4.81949997-3.07733155 1.92491531-5.63397217 4.16222763-7.39349366 6.47001266-1.77365112 2.32631683-2.7111206 4.69231415-2.7111206 6.84220123 0 3.78091431 2.80270386 6.10140992 8.82028198 7.30275727 5.41506958 1.0810852 12.71969605 1.16703033 21.70635986 1.16703033.64233399 0 1.28952027-.00043487 1.94161988-.00081634l.01483154-.00001526.10421753-.00006867c.63287353-.00037384 1.27035522-.00076294 1.91238403-.00076294zm-1.2177124-72.22139644c-5.42092895 0-10.51727295 1.80201435-14.35025024 5.07408619-1.86376954 1.59101295-3.32699585 3.44371414-4.3491211 5.50665664-1.05819702 2.13579941-1.59472656 4.40458489-1.59472656 6.74335671 0 2.35605812.55145264 5.07714462 1.59475708 7.8690567 1.04986572 2.80955887 2.55377197 5.57009888 4.34906006 7.98318481 1.91720581 2.576931 4.14782715 4.71712876 6.45071411 6.18924332 2.58166504 1.65031433 5.23944092 2.48710251 7.89956665 2.48710251 2.65988159 0 5.31756592-.83678818 7.89923096-2.48710251 2.30279541-1.47208405 4.53341675-3.61228561 6.45071411-6.18924332 1.79537964-2.41309738 3.2993164-5.1736412 4.34927368-7.98318481 1.043396-2.79192734 1.59487915-5.51301384 1.59487915-7.8690567 0-2.33875656-.53656006-4.60754204-1.59484863-6.74335671-1.0222168-2.06295776-2.48553467-3.9156723-4.3493042-5.50665664-3.83309937-3.27207184-8.92935181-5.07408619-14.34994507-5.07408619z" fill="#000080"/></g><g fill="#000080" stroke="#000080"><path d="m-444.479 15a.56.56 0 0 1 -.521-.58v-10.32a.561.561 0 0 1 .521-.58h16.1a.562.562 0 0 1 .522.58v10.32a.561.561 0 0 1 -.522.58zm4.7-5.55a3.172 3.172 0 0 0 3.168 3.17 3.172 3.172 0 0 0 3.168-3.17 3.173 3.173 0 0 0 -3.168-3.171 3.173 3.173 0 0 0 -3.17 3.17zm1.819-7.3a1.074 1.074 0 0 1 -1.074-1.074 1.074 1.074 0 0 1 1.071-1.076h3.07a1.074 1.074 0 0 1 1.075 1.074 1.074 1.074 0 0 1 -1.075 1.074z" transform="translate(548.5 83.5)"/><path d="m2 5v-2h-2v-1h2v-2h1v2h2v1h-2v2z" transform="translate(98.273 81.826)"/></g></svg>