<svg xmlns="http://www.w3.org/2000/svg" viewBox="0 0 24.999 21.991">
  <path id="Subtraction_17" data-name="Subtraction 17" d="M-441.325-737v-6.107A4.5,4.5,0,0,1-445-747.531V-752.5a4.505,4.505,0,0,1,4.5-4.5h15a4.505,4.505,0,0,1,4.5,4.5v4.969a4.505,4.505,0,0,1-4.5,4.5h-11.293l-4.53,6.029Zm9.158-12.965a3.417,3.417,0,0,1,3.047,1.734,6.588,6.588,0,0,1,.663,1.5c.047.145.075.233.093.233s.023-.056.03-.212a6.387,6.387,0,0,0-1.44-4.306,4.23,4.23,0,0,0-3.184-1.232,7.362,7.362,0,0,0-.941.064l-.031-2.182-4.674,3.406,4.766,3.2-.027-1.927.072-.021.07-.019A5.625,5.625,0,0,1-432.167-749.964Z" transform="translate(445.5 757.5)" fill="#fff" stroke="#329bff" stroke-width="1"/>
</svg>
