<svg xmlns="http://www.w3.org/2000/svg" width="23.373" height="17.673" viewBox="0 0 23.373 17.673">
  <path id="Union_80" data-name="Union 80" d="M-884.251,16.673a.561.561,0,0,1-.522-.58V5.773a.562.562,0,0,1,.522-.581h16.1a.562.562,0,0,1,.522.581v10.32a.561.561,0,0,1-.522.58Zm4.7-5.55a3.172,3.172,0,0,0,3.168,3.169,3.172,3.172,0,0,0,3.169-3.169,3.173,3.173,0,0,0-3.169-3.171A3.173,3.173,0,0,0-879.555,11.123ZM-888,5V3h-2V2h2V0h1V2h2V3h-2V5Zm10.265-1.178a1.074,1.074,0,0,1-1.074-1.074,1.074,1.074,0,0,1,1.074-1.074h3.07a1.074,1.074,0,0,1,1.075,1.074,1.074,1.074,0,0,1-1.075,1.074Z" transform="translate(890.5 0.5)" fill="navy" stroke="navy" stroke-width="1"/>
</svg>
