<svg xmlns="http://www.w3.org/2000/svg" viewBox="0 0 104.999 105">
  <g id="Subtraction_19" data-name="Subtraction 19" transform="translate(445 0)" fill="none">
    <path d="M-392.5,105a52.171,52.171,0,0,1-20.435-4.126,52.323,52.323,0,0,1-16.688-11.251,52.325,52.325,0,0,1-11.251-16.688A52.174,52.174,0,0,1-445,52.5a52.172,52.172,0,0,1,4.126-20.435,52.325,52.325,0,0,1,11.251-16.688A52.325,52.325,0,0,1-412.935,4.126,52.171,52.171,0,0,1-392.5,0a52.17,52.17,0,0,1,20.435,4.126,52.326,52.326,0,0,1,16.688,11.251,52.325,52.325,0,0,1,11.251,16.688A52.17,52.17,0,0,1-340,52.5a52.172,52.172,0,0,1-4.126,20.436,52.325,52.325,0,0,1-11.251,16.688,52.325,52.325,0,0,1-16.688,11.251A52.17,52.17,0,0,1-392.5,105Zm0-20.779h3.973c8.987,0,16.291-.086,21.707-1.167,6.018-1.2,8.82-3.522,8.82-7.3a11.621,11.621,0,0,0-2.711-6.842,27.964,27.964,0,0,0-7.393-6.47,43.822,43.822,0,0,0-10.966-4.819A48.484,48.484,0,0,0-392.5,55.731a48.484,48.484,0,0,0-13.429,1.891,43.822,43.822,0,0,0-10.966,4.819,27.963,27.963,0,0,0-7.393,6.47A11.621,11.621,0,0,0-427,75.753c0,3.781,2.8,6.1,8.82,7.3,5.415,1.081,12.72,1.167,21.706,1.167h3.973ZM-393.718,12a22.036,22.036,0,0,0-14.35,5.074,17.4,17.4,0,0,0-4.349,5.507,15.069,15.069,0,0,0-1.595,6.743,23.055,23.055,0,0,0,1.595,7.869,32.789,32.789,0,0,0,4.349,7.983,25.19,25.19,0,0,0,6.451,6.189,14.59,14.59,0,0,0,7.9,2.487,14.589,14.589,0,0,0,7.9-2.487,25.192,25.192,0,0,0,6.451-6.189,32.79,32.79,0,0,0,4.349-7.983,23.053,23.053,0,0,0,1.595-7.869,15.068,15.068,0,0,0-1.595-6.743,17.4,17.4,0,0,0-4.349-5.507A22.036,22.036,0,0,0-393.718,12Z" stroke="none"/>
    <path d="M -392.4999084472656 104.0003280639648 C -385.5472106933594 104.0003280639648 -378.8029479980469 102.6387939453125 -372.4543762207031 99.95355224609375 C -366.3219604492188 97.35969543457031 -360.8142700195312 93.64617919921875 -356.0842895507812 88.9161376953125 C -351.354248046875 84.18606567382812 -347.6407775878906 78.67828369140625 -345.0469665527344 72.54576873779297 C -342.3617248535156 66.19712829589844 -341.0002136230469 59.45265197753906 -341.0002136230469 52.49969482421875 C -341.0002136230469 45.54698181152344 -342.3617248535156 38.80268096923828 -345.0469665527344 32.45415496826172 C -347.6407470703125 26.32182502746582 -351.3542175292969 20.81413841247559 -356.0842590332031 16.08406829833984 C -360.8142700195312 11.35408210754395 -366.3219604492188 7.640596389770508 -372.4543762207031 5.046753406524658 C -378.8028564453125 2.361539363861084 -385.5471496582031 1.00001072883606 -392.4999084472656 1.00001072883606 C -399.452880859375 1.00001072883606 -406.1972961425781 2.361539363861084 -412.5458374023438 5.046753406524658 C -418.67822265625 7.640567779541016 -424.1858825683594 11.35405349731445 -428.9158630371094 16.08406829833984 C -433.6457824707031 20.81401062011719 -437.3592224121094 26.32169723510742 -439.9529724121094 32.45413970947266 C -442.6381225585938 38.80268096923828 -443.9996032714844 45.54698181152344 -443.9996032714844 52.49969482421875 C -443.9996032714844 59.45265197753906 -442.6381225585938 66.19713592529297 -439.9529724121094 72.54578399658203 C -437.3592224121094 78.67835235595703 -433.6457824707031 84.18614196777344 -428.9158630371094 88.9161376953125 C -424.1859741210938 93.64617919921875 -418.6783142089844 97.35969543457031 -412.5458374023438 99.95355224609375 C -406.1972351074219 102.6387939453125 -399.4528198242188 104.0003280639648 -392.4999084472656 104.0003280639648 M -392.4999084472656 85.22110748291016 C -393.1231689453125 85.22110748291016 -393.7421264648438 85.22146606445312 -394.3567504882812 85.22183990478516 L -394.41162109375 85.22187042236328 L -394.5155639648438 85.22193908691406 L -394.53076171875 85.22195434570312 L -394.7206115722656 85.22206878662109 C -395.3087158203125 85.22242736816406 -395.892822265625 85.22277069091797 -396.4729614257812 85.22277069091797 C -405.5155944824219 85.22277069091797 -412.8701782226562 85.13541412353516 -418.3750915527344 84.03638458251953 C -421.5785522460938 83.3968505859375 -423.9038391113281 82.45006561279297 -425.4837951660156 81.14195251464844 C -427.1531677246094 79.75979614257812 -427.9996032714844 77.94668579101562 -427.9996032714844 75.75298309326172 C -427.9996032714844 73.38211059570312 -426.9913024902344 70.80646514892578 -425.0837097167969 68.30448150634766 C -423.2519226074219 65.90189361572266 -420.6036682128906 63.58108139038086 -417.4253234863281 61.59296798706055 C -414.1294250488281 59.53135299682617 -410.249755859375 57.82568359375 -406.2057189941406 56.66036605834961 C -402.5579528808594 55.60922241210938 -398.7969970703125 54.98345947265625 -394.9939270019531 54.79304885864258 C -397.4167785644531 54.56758880615234 -399.8203430175781 53.70077133178711 -402.1557922363281 52.20785522460938 C -404.5596618652344 50.67118072509766 -406.8814697265625 48.44604110717773 -408.8702087402344 45.77295303344727 C -410.7209777832031 43.28532409667969 -412.2713317871094 40.43942642211914 -413.3536987304688 37.54291152954102 C -414.4383850097656 34.64023971557617 -415.01171875 31.79812431335449 -415.01171875 29.32381057739258 C -415.01171875 26.82963943481445 -414.4402160644531 24.4114818572998 -413.3130493164062 22.13649559020996 C -412.2305297851562 19.95169639587402 -410.6842651367188 17.99246788024902 -408.7171325683594 16.31324005126953 C -404.7032775878906 12.88675403594971 -399.3763427734375 10.99971103668213 -393.7176208496094 10.99971103668213 C -388.0592346191406 10.99971103668213 -382.7323913574219 12.88675403594971 -378.7184143066406 16.31322479248047 C -376.7512817382812 17.99245262145996 -375.2049255371094 19.95166778564453 -374.122314453125 22.13646697998047 C -372.9950866699219 24.41145324707031 -372.4235229492188 26.82962417602539 -372.4235229492188 29.32381057739258 C -372.4235229492188 31.79813957214355 -372.9968872070312 34.64026641845703 -374.0816650390625 37.54293823242188 C -375.1641845703125 40.43955230712891 -376.7146301269531 43.28545379638672 -378.5653686523438 45.77296829223633 C -380.5541687011719 48.44605255126953 -382.8760070800781 50.67121124267578 -385.27978515625 52.20785522460938 C -387.4465026855469 53.59291839599609 -389.6714477539062 54.43903732299805 -391.9162902832031 54.73410415649414 C -387.4634094238281 54.78616714477539 -383.0515441894531 55.43353652954102 -378.7940979003906 56.66036605834961 C -374.7500610351562 57.82568359375 -370.8703918457031 59.53135299682617 -367.5744934082031 61.59296798706055 C -364.3961181640625 63.58112335205078 -361.7478942871094 65.90192413330078 -359.9161071777344 68.30446624755859 C -358.0085144042969 70.80644989013672 -357.0002136230469 73.38209533691406 -357.0002136230469 75.75298309326172 C -357.0002136230469 77.94669342041016 -357.8466491699219 79.75982666015625 -359.5160522460938 81.14199829101562 C -361.0960083007812 82.45012664794922 -363.4212646484375 83.39692687988281 -366.624755859375 84.03646850585938 C -372.1299743652344 85.13555145263672 -379.484619140625 85.22290802001953 -388.5273132324219 85.22290802001953 C -389.1270751953125 85.22290802001953 -389.7310180664062 85.22251129150391 -390.3392333984375 85.22210693359375 L -390.4136657714844 85.22206878662109 L -390.4839477539062 85.22200775146484 C -391.1507263183594 85.22154998779297 -391.8227233886719 85.22110748291016 -392.4999084472656 85.22110748291016 M -392.4999084472656 105.0003280639648 C -399.58740234375 105.0003280639648 -406.4628601074219 103.6122131347656 -412.9353942871094 100.8745498657227 C -419.1870422363281 98.23029327392578 -424.8015747070312 94.44479370117188 -429.6229858398438 89.62323760986328 C -434.4443969726562 84.80174255371094 -438.2297973632812 79.18711090087891 -440.8739929199219 72.93532562255859 C -443.6115417480469 66.46278381347656 -444.9996032714844 59.58722686767578 -444.9996032714844 52.49969482421875 C -444.9996032714844 45.41238403320312 -443.6115417480469 38.53702545166016 -440.8739929199219 32.06459808349609 C -438.2297973632812 25.81295394897461 -434.4443969726562 20.19841003417969 -429.6229858398438 15.37696743011475 C -424.8014831542969 10.55542469024658 -419.1869812011719 6.76998233795166 -412.9353942871094 4.125753402709961 C -406.4629211425781 1.388110756874084 -399.5874328613281 1.070382222678745e-05 -392.4999084472656 1.070382222678745e-05 C -385.41259765625 1.070382222678745e-05 -378.5372314453125 1.388110756874084 -372.0648193359375 4.125753402709961 C -365.813232421875 6.769996643066406 -360.1986999511719 10.55543899536133 -355.3771667480469 15.37696743011475 C -350.5556335449219 20.19849586486816 -346.7701721191406 25.81302452087402 -344.1259765625 32.06459808349609 C -341.3883361816406 38.53701019287109 -340.0002136230469 45.41236877441406 -340.0002136230469 52.49969482421875 C -340.0002136230469 59.5872688293457 -341.3883361816406 66.46279907226562 -344.1259765625 72.93532562255859 C -346.7701721191406 79.18699645996094 -350.5556030273438 84.80162811279297 -355.3771667480469 89.62323760986328 C -360.1986389160156 94.44477081298828 -365.8131713867188 98.23027038574219 -372.0648193359375 100.8745498657227 C -378.5372924804688 103.6122131347656 -385.4126281738281 105.0003280639648 -392.4999084472656 105.0003280639648 Z M -392.4999084472656 84.22110748291016 C -391.8224792480469 84.22110748291016 -391.1502685546875 84.22154998779297 -390.4832458496094 84.22200775146484 L -390.4128723144531 84.22206878662109 C -389.7797546386719 84.22248077392578 -389.1512756347656 84.22290802001953 -388.5273132324219 84.22290802001953 C -379.5405883789062 84.22290802001953 -372.2359313964844 84.13697052001953 -366.820556640625 83.05582427978516 C -360.8029174804688 81.85445404052734 -358.0002136230469 79.53392791748047 -358.0002136230469 75.75298309326172 C -358.0002136230469 73.60308074951172 -358.9376831054688 71.23708343505859 -360.7113342285156 68.91078186035156 C -362.4708557128906 66.60299682617188 -365.0274963378906 64.36569976806641 -368.1048278808594 62.44076919555664 C -371.3230285644531 60.42773818969727 -375.1150512695312 58.76119613647461 -379.0709838867188 57.62126922607422 C -383.4244995117188 56.36676788330078 -387.942626953125 55.73069763183594 -392.4999084472656 55.73069763183594 C -397.0571899414062 55.73069763183594 -401.5753173828125 56.36676788330078 -405.9288330078125 57.62126922607422 C -409.884765625 58.76119613647461 -413.6767883300781 60.42773818969727 -416.8949890136719 62.44076919555664 C -419.9723205566406 64.36568450927734 -422.5289611816406 66.60299682617188 -424.2884826660156 68.91078186035156 C -426.0621337890625 71.23709869384766 -426.9996032714844 73.60309600830078 -426.9996032714844 75.75298309326172 C -426.9996032714844 79.53389739990234 -424.1968994140625 81.85439300537109 -418.1793212890625 83.05574035644531 C -412.7642517089844 84.13682556152344 -405.4596252441406 84.22277069091797 -396.4729614257812 84.22277069091797 C -395.8306274414062 84.22277069091797 -395.1834411621094 84.22233581542969 -394.5313415527344 84.22195434570312 L -394.5165100097656 84.22193908691406 L -394.4122924804688 84.22187042236328 C -393.7794189453125 84.22149658203125 -393.1419372558594 84.22110748291016 -392.4999084472656 84.22110748291016 Z M -393.7176208496094 11.99971103668213 C -399.1385498046875 11.99971103668213 -404.2348937988281 13.80172538757324 -408.06787109375 17.07379722595215 C -409.931640625 18.66481018066406 -411.3948669433594 20.51751136779785 -412.4169921875 22.58045387268066 C -413.4751892089844 24.71625328063965 -414.01171875 26.98503875732422 -414.01171875 29.32381057739258 C -414.01171875 31.67986869812012 -413.4602661132812 34.40095520019531 -412.4169616699219 37.19286727905273 C -411.3670959472656 40.00242614746094 -409.8631896972656 42.76296615600586 -408.0679016113281 45.17605209350586 C -406.1506958007812 47.75298309326172 -403.9200744628906 49.89318084716797 -401.6171875 51.36529541015625 C -399.0355224609375 53.01560974121094 -396.3777465820312 53.85239791870117 -393.7176208496094 53.85239791870117 C -391.0577392578125 53.85239791870117 -388.4000549316406 53.01560974121094 -385.8183898925781 51.36529541015625 C -383.5155944824219 49.89321136474609 -381.2849731445312 47.75300979614258 -379.36767578125 45.17605209350586 C -377.5722961425781 42.76295471191406 -376.068359375 40.00241088867188 -375.0184020996094 37.19286727905273 C -373.9750061035156 34.40093994140625 -373.4235229492188 31.67985343933105 -373.4235229492188 29.32381057739258 C -373.4235229492188 26.98505401611328 -373.9600830078125 24.71626853942871 -375.0183715820312 22.58045387268066 C -376.0405883789062 20.51749610900879 -377.50390625 18.66478157043457 -379.36767578125 17.07379722595215 C -383.2007751464844 13.80172538757324 -388.2970275878906 11.99971103668213 -393.7176208496094 11.99971103668213 Z" stroke="none" fill="navy"/>
  </g>
</svg>
