<svg xmlns="http://www.w3.org/2000/svg"  viewBox="0 0 21.001 16">
  <g id="Union_20" data-name="Union 20" fill="navy">
    <path d="M 19.09530067443848 15.50020027160645 L 1.90440034866333 15.50020027160645 C 1.130010366439819 15.50020027160645 0.5000004172325134 14.86979007720947 0.5000004172325134 14.09490013122559 C 0.5000004172325134 13.3205099105835 1.130010366439819 12.69050025939941 1.90440034866333 12.69050025939941 L 19.09530067443848 12.69050025939941 C 19.87018966674805 12.69050025939941 20.50060081481934 13.3205099105835 20.50060081481934 14.09490013122559 C 20.50060081481934 14.86979007720947 19.87018966674805 15.50020027160645 19.09530067443848 15.50020027160645 Z M 19.09530067443848 9.404500007629395 L 1.90440034866333 9.404500007629395 C 1.130010366439819 9.404500007629395 0.5000004172325134 8.774490356445312 0.5000004172325134 8.000100135803223 C 0.5000004172325134 7.225210189819336 1.130010366439819 6.594799995422363 1.90440034866333 6.594799995422363 L 19.09530067443848 6.594799995422363 C 19.87018966674805 6.594799995422363 20.50060081481934 7.225210189819336 20.50060081481934 8.000100135803223 C 20.50060081481934 8.774490356445312 19.87018966674805 9.404500007629395 19.09530067443848 9.404500007629395 Z M 19.09530067443848 3.30970025062561 L 1.90440034866333 3.30970025062561 C 1.130010366439819 3.30970025062561 0.5000004172325134 2.679290056228638 0.5000004172325134 1.904400110244751 C 0.5000004172325134 1.13001012802124 1.130010366439819 0.5000001192092896 1.90440034866333 0.5000001192092896 L 19.09530067443848 0.5000001192092896 C 19.87018966674805 0.5000001192092896 20.50060081481934 1.13001012802124 20.50060081481934 1.904400110244751 C 20.50060081481934 2.679290056228638 19.87018966674805 3.30970025062561 19.09530067443848 3.30970025062561 Z" stroke="none"/>
    <path d="M 19.09530067443848 15.00020027160645 C 19.59448051452637 15.00020027160645 20.00060081481934 14.59407997131348 20.00060081481934 14.09490013122559 C 20.00060081481934 13.59621047973633 19.59448051452637 13.19050025939941 19.09530067443848 13.19050025939941 L 1.90440034866333 13.19050025939941 C 1.405710458755493 13.19050025939941 1.000000357627869 13.59621047973633 1.000000357627869 14.09490013122559 C 1.000000357627869 14.59407997131348 1.405710458755493 15.00020027160645 1.90440034866333 15.00020027160645 L 19.09530067443848 15.00020027160645 M 19.09530067443848 8.904500007629395 C 19.59448051452637 8.904500007629395 20.00060081481934 8.49878978729248 20.00060081481934 8.000100135803223 C 20.00060081481934 7.500920295715332 19.59448051452637 7.094799995422363 19.09530067443848 7.094799995422363 L 1.90440034866333 7.094799995422363 C 1.405710458755493 7.094799995422363 1.000000357627869 7.500920295715332 1.000000357627869 8.000100135803223 C 1.000000357627869 8.49878978729248 1.405710458755493 8.904500007629395 1.90440034866333 8.904500007629395 L 19.09530067443848 8.904500007629395 M 19.09530067443848 2.80970025062561 C 19.59448051452637 2.80970025062561 20.00060081481934 2.403580188751221 20.00060081481934 1.904400110244751 C 20.00060081481934 1.405710101127625 19.59448051452637 1.00000011920929 19.09530067443848 1.00000011920929 L 1.90440034866333 1.00000011920929 C 1.405710458755493 1.00000011920929 1.000000357627869 1.405710101127625 1.000000357627869 1.904400110244751 C 1.000000357627869 2.403580188751221 1.405710458755493 2.80970025062561 1.90440034866333 2.80970025062561 L 19.09530067443848 2.80970025062561 M 19.09530067443848 16.00020027160645 L 1.90440034866333 16.00020027160645 C 0.8532004356384277 16.00020027160645 4.07409658009783e-07 15.14700031280518 4.07409658009783e-07 14.09490013122559 C 4.07409658009783e-07 13.042799949646 0.8532004356384277 12.19050025939941 1.90440034866333 12.19050025939941 L 19.09530067443848 12.19050025939941 C 20.14739990234375 12.19050025939941 21.00060081481934 13.042799949646 21.00060081481934 14.09490013122559 C 21.00060081481934 15.14700031280518 20.14739990234375 16.00020027160645 19.09530067443848 16.00020027160645 Z M 19.09530067443848 9.904500007629395 L 1.90440034866333 9.904500007629395 C 0.8532004356384277 9.904500007629395 4.07409658009783e-07 9.051300048828125 4.07409658009783e-07 8.000100135803223 C 4.07409658009783e-07 6.947999954223633 0.8532004356384277 6.094799995422363 1.90440034866333 6.094799995422363 L 19.09530067443848 6.094799995422363 C 20.14739990234375 6.094799995422363 21.00060081481934 6.947999954223633 21.00060081481934 8.000100135803223 C 21.00060081481934 9.051300048828125 20.14739990234375 9.904500007629395 19.09530067443848 9.904500007629395 Z M 19.09530067443848 3.80970025062561 L 1.90440034866333 3.80970025062561 C 0.8532004356384277 3.80970025062561 4.07409658009783e-07 2.956500053405762 4.07409658009783e-07 1.904400110244751 C 4.07409658009783e-07 0.8523001074790955 0.8532004356384277 1.358032193365943e-07 1.90440034866333 1.358032193365943e-07 L 19.09530067443848 1.358032193365943e-07 C 20.14739990234375 1.358032193365943e-07 21.00060081481934 0.8523001074790955 21.00060081481934 1.904400110244751 C 21.00060081481934 2.956500053405762 20.14739990234375 3.80970025062561 19.09530067443848 3.80970025062561 Z" stroke="none" fill="navy"/>
  </g>
</svg>
