<svg xmlns="http://www.w3.org/2000/svg" viewBox="0 0 23.999 25.299">
  <g id="Subtraction_29" data-name="Subtraction 29" transform="translate(0 757)" fill="#fff">
    <path d="M 9.346005439758301 -732.200927734375 L 0.500005304813385 -732.2017822265625 L 0.500005304813385 -745.2156982421875 L 11.82666110992432 -756.3052368164062 L 23.49940490722656 -745.2113037109375 L 23.49940490722656 -732.2027587890625 L 14.65340518951416 -732.201904296875 L 14.65340518951416 -738.2402954101562 C 14.65340518951416 -739.7035522460938 13.46296501159668 -740.89404296875 11.99970531463623 -740.89404296875 C 10.53644561767578 -740.89404296875 9.346005439758301 -739.7035522460938 9.346005439758301 -738.2402954101562 L 9.346005439758301 -732.200927734375 Z" stroke="none"/>
    <path d="M 8.846005439758301 -732.7009887695312 L 8.846005439758301 -738.2402954101562 C 8.846005439758301 -739.979248046875 10.26074504852295 -741.39404296875 11.99970531463623 -741.39404296875 C 13.73866558074951 -741.39404296875 15.15340518951416 -739.979248046875 15.15340518951416 -738.2402954101562 L 15.15340518951416 -732.7019653320312 L 22.99940490722656 -732.7026977539062 L 22.99940490722656 -744.9967041015625 L 11.83181667327881 -755.6105346679688 L 1.00000536441803 -745.0054931640625 L 1.00000536441803 -732.7017211914062 L 8.846005439758301 -732.7009887695312 M 9.846005439758301 -731.7008666992188 L 9.845005035400391 -731.7008666992188 L 5.314636382536264e-06 -731.7018432617188 L 5.314636382536264e-06 -745.4259033203125 L 11.82150554656982 -756.9999389648438 L 23.99940490722656 -745.4259033203125 L 23.99940490722656 -731.7028198242188 L 14.15340518951416 -731.7018432617188 L 14.15340518951416 -738.2402954101562 C 14.15340518951416 -739.4278564453125 13.18725490570068 -740.39404296875 11.99970531463623 -740.39404296875 C 10.81215572357178 -740.39404296875 9.846005439758301 -739.4278564453125 9.846005439758301 -738.2402954101562 L 9.846005439758301 -731.7018432617188 L 9.846005439758301 -731.7008666992188 Z" stroke="none" fill="#fff"/>
  </g>
</svg>
