<svg xmlns="http://www.w3.org/2000/svg" xmlns:xlink="http://www.w3.org/1999/xlink" viewBox="0 0 164.91 50.866">
  <defs>
    <clipPath id="clip">
      <use xlink:href="#fill"/>
    </clipPath>
    <clipPath id="clip-2">
      <use xlink:href="#fill-2"/>
    </clipPath>
  </defs>
  <g id="Component_8_1" data-name="Component 8 – 1" transform="translate(1.5 1.773)">
    <path id="Union_14" data-name="Union 14" d="M108.32,35.608a5.145,5.145,0,0,1-1.248-3.872,13.011,13.011,0,0,1-5.216,3.872,18.01,18.01,0,0,1-10.688.672,9.9,9.9,0,0,1-3.488-1.6,7.678,7.678,0,0,1-2.336-2.848,9.583,9.583,0,0,1-.864-4.256,9.719,9.719,0,0,1,.959-4.608,8.4,8.4,0,0,1,2.528-2.912,11.6,11.6,0,0,1,3.585-1.7q2.016-.576,4.127-.96,2.24-.448,4.256-.671a23.754,23.754,0,0,0,3.552-.64,5.923,5.923,0,0,0,2.432-1.217,2.966,2.966,0,0,0,.9-2.335,5.426,5.426,0,0,0-.672-2.88,4.613,4.613,0,0,0-1.728-1.664,7.012,7.012,0,0,0-2.368-.768,17.789,17.789,0,0,0-2.592-.193A11.5,11.5,0,0,0,93.7,8.344q-2.3,1.312-2.5,4.96H85.76A11.761,11.761,0,0,1,87.04,8.12,9.709,9.709,0,0,1,90.113,4.7,12.884,12.884,0,0,1,94.5,2.808a23.13,23.13,0,0,1,5.279-.576,30.984,30.984,0,0,1,4.449.32,11.638,11.638,0,0,1,4,1.311,7.671,7.671,0,0,1,2.88,2.785,8.906,8.906,0,0,1,1.088,4.672V28.344a12.718,12.718,0,0,0,.224,2.816q.224.9,1.5.9a5.393,5.393,0,0,0,1.664-.32V35.96a7.7,7.7,0,0,1-3.9.832A4.681,4.681,0,0,1,108.32,35.608ZM104.064,20.12q-1.665.351-3.488.576t-3.68.511a13.52,13.52,0,0,0-3.327.929,6.047,6.047,0,0,0-2.4,1.823,5.1,5.1,0,0,0-.928,3.232,4.425,4.425,0,0,0,.544,2.273,4.542,4.542,0,0,0,1.409,1.5,5.884,5.884,0,0,0,2.016.832,11.162,11.162,0,0,0,2.432.257,12.89,12.89,0,0,0,4.608-.736,9.692,9.692,0,0,0,3.136-1.856,7.32,7.32,0,0,0,1.792-2.432,6.148,6.148,0,0,0,.576-2.464V19A6.771,6.771,0,0,1,104.064,20.12ZM62.08,36.088V3H67.2V9.976h.128a14.743,14.743,0,0,1,4.864-5.952,12.228,12.228,0,0,1,7.3-1.792v5.76a15.382,15.382,0,0,0-5.568.9,8.774,8.774,0,0,0-3.712,2.623A10.871,10.871,0,0,0,68.16,15.7a22.624,22.624,0,0,0-.64,5.664v14.72Zm-24,0V3H43.2V9.976h.128a14.737,14.737,0,0,1,4.865-5.952,12.224,12.224,0,0,1,7.3-1.792v5.76a15.377,15.377,0,0,0-5.567.9,8.771,8.771,0,0,0-3.712,2.623A10.856,10.856,0,0,0,44.16,15.7a22.624,22.624,0,0,0-.64,5.664v14.72Zm-28.816-1.7a14.852,14.852,0,0,1-5.135-3.96,16.985,16.985,0,0,1-3.1-5.736,22.546,22.546,0,0,1,0-13.488,16.985,16.985,0,0,1,3.1-5.736A15.123,15.123,0,0,1,9.264,1.488,16.233,16.233,0,0,1,16.416,0a16.233,16.233,0,0,1,7.152,1.488A15.114,15.114,0,0,1,28.7,5.472a16.985,16.985,0,0,1,3.1,5.736,22.546,22.546,0,0,1,0,13.488,16.985,16.985,0,0,1-3.1,5.736,14.844,14.844,0,0,1-5.135,3.96,16.449,16.449,0,0,1-7.152,1.464A16.449,16.449,0,0,1,9.264,34.392ZM11.04,5.064a10.79,10.79,0,0,0-3.7,3.24A13.876,13.876,0,0,0,5.232,12.84a19.8,19.8,0,0,0,0,10.224A13.893,13.893,0,0,0,7.344,27.6a10.808,10.808,0,0,0,3.7,3.24,11.123,11.123,0,0,0,5.376,1.224,11.123,11.123,0,0,0,5.376-1.224,10.8,10.8,0,0,0,3.7-3.24A13.893,13.893,0,0,0,27.6,23.064a19.8,19.8,0,0,0,0-10.224A13.876,13.876,0,0,0,25.488,8.3a10.781,10.781,0,0,0-3.7-3.24A11.113,11.113,0,0,0,16.416,3.84,11.113,11.113,0,0,0,11.04,5.064Z" transform="translate(47.826 10.908)" fill="navy"/>
    <g id="Group_47" data-name="Group 47">
      <path id="Path_147" data-name="Path 147" d="M648,1098.9v-37.892l7.647-4.422,7.078,4.422,8.111,9.762,4.569-9.762,6.266-4.422,7.829,4.422V1098.9l-7.829,4.944-6.266-4.944-8.468-9.082-4.212,9.082-4.945,4.944Z" transform="translate(-648 -1056.583)" fill="none" stroke="navy" stroke-width="3"/>
      <g id="Rectangle_146" data-name="Rectangle 146" transform="matrix(0.616, 0.788, -0.788, 0.616, 22.29, 11.813)" fill="#fff" stroke="navy" stroke-width="3">
        <rect id="fill" width="12" height="2.5" rx="1.25" stroke="none"/>
        <path d="M0,1h12M10.5,0v2.5M12,1.5h-12M1.5,2.5v-2.5" fill="none" clip-path="url(#clip)"/>
      </g>
      <g id="Rectangle_147" data-name="Rectangle 147" transform="matrix(0.643, 0.766, -0.766, 0.643, 12.947, 23.773)" fill="#fff" stroke="navy" stroke-width="3">
        <rect id="fill-2" width="12" height="2.5" rx="1.25" stroke="none"/>
        <path d="M0,1h12M10.5,0v2.5M12,1.5h-12M1.5,2.5v-2.5" fill="none" clip-path="url(#clip-2)"/>
      </g>
    </g>
  </g>
</svg>
