<svg xmlns="http://www.w3.org/2000/svg" viewBox="0 0 25.088 27.707">
  <path id="Union_29" data-name="Union 29" d="M9.176,24.505a1.693,1.693,0,0,1,.058-.44h5.621a1.732,1.732,0,0,1,.058.44c0,1.214-1.287,2.2-2.868,2.2S9.176,25.719,9.176,24.505ZM0,23.185V19.957H24.088v3.228Zm3.059-4.7V11.333a8.985,8.985,0,0,1,17.97,0v7.156ZM10.706,1.027A1.214,1.214,0,0,1,12.044,0a1.214,1.214,0,0,1,1.338,1.027,1.214,1.214,0,0,1-1.338,1.028A1.214,1.214,0,0,1,10.706,1.027Z" transform="translate(0.5 0.5)" fill="none" stroke="navy" stroke-width="1"/>
</svg>
