<svg xmlns="http://www.w3.org/2000/svg" viewBox="0 0 59.999 60">
  <g id="Group_113" data-name="Group 113" transform="translate(-97 -525)">
    <path id="Subtraction_33" data-name="Subtraction 33" d="M-415-697a29.812,29.812,0,0,1-11.678-2.358,29.9,29.9,0,0,1-9.536-6.429,29.9,29.9,0,0,1-6.429-9.536A29.814,29.814,0,0,1-445-727a29.812,29.812,0,0,1,2.357-11.677,29.9,29.9,0,0,1,6.429-9.536,29.9,29.9,0,0,1,9.536-6.429A29.813,29.813,0,0,1-415-757a29.811,29.811,0,0,1,11.677,2.358,29.9,29.9,0,0,1,9.536,6.429,29.9,29.9,0,0,1,6.429,9.536A29.81,29.81,0,0,1-385-727a29.813,29.813,0,0,1-2.358,11.678,29.9,29.9,0,0,1-6.429,9.536,29.9,29.9,0,0,1-9.536,6.429A29.811,29.811,0,0,1-415-697Zm10.754-40.975-15.674,14.114-2.273,5.357,5.787-1.453,15.674-14.114-3.514-3.9Zm3.7-3.625-1.879,1.692,3.514,3.9,1.879-1.692-3.514-3.9Z" transform="translate(542 1282)" fill="navy"/>
    <path id="Path_161" data-name="Path 161" d="M556.01,1344.318h-15.1v24.216h25.144v-10.151" transform="translate(-426.913 -801)" fill="none" stroke="#fff" stroke-width="1"/>
  </g>
</svg>
