<svg xmlns="http://www.w3.org/2000/svg" viewBox="0 0 13 15.222">
  <g id="Union_92" data-name="Union 92" transform="translate(0 757)" fill="none">
    <path d="M6.5-741.778c-3.59,0-6.5.07-6.5-1.785s2.91-4.22,6.5-4.22,6.5,2.365,6.5,4.22c0,1.724-2.514,1.785-5.751,1.785ZM2.447-753.349A3.74,3.74,0,0,1,6.27-757a3.74,3.74,0,0,1,3.823,3.651c0,2.017-1.712,5.17-3.823,5.17S2.447-751.332,2.447-753.349Z" stroke="none"/>
    <path d="M 7.249071598052979 -742.7774658203125 C 8.823391914367676 -742.7774658203125 10.20131206512451 -742.794189453125 11.12009143829346 -742.9993896484375 C 11.99960136413574 -743.1958618164062 11.99960136413574 -743.4254760742188 11.99960136413574 -743.5626220703125 C 11.99960136413574 -744.0369262695312 11.54287147521973 -744.8351440429688 10.52250194549561 -745.5491943359375 C 9.402181625366211 -746.3331909179688 7.935961723327637 -746.7828369140625 6.499801635742188 -746.7828369140625 C 5.063641548156738 -746.7828369140625 3.597421646118164 -746.3331909179688 2.477101564407349 -745.5491943359375 C 1.456731677055359 -744.8351440429688 1.000001668930054 -744.0369262695312 1.000001668930054 -743.5626220703125 C 1.000001668930054 -743.4254150390625 1.000001668930054 -743.19580078125 1.879501581192017 -742.9993896484375 C 2.798221588134766 -742.794189453125 4.176281452178955 -742.7774658203125 5.750771522521973 -742.7774658203125 L 6.118921756744385 -742.7776489257812 L 6.499801635742188 -742.77783203125 L 6.880831718444824 -742.7776489257812 L 7.249071598052979 -742.7774658203125 M 6.270491600036621 -749.1787109375 C 7.606611728668213 -749.1787109375 9.093811988830566 -751.6641845703125 9.093811988830566 -753.3485107421875 C 9.093811988830566 -754.8104858398438 7.827271461486816 -755.9998779296875 6.270491600036621 -755.9998779296875 C 4.713621616363525 -755.9998779296875 3.447021722793579 -754.8104858398438 3.447021722793579 -753.3485107421875 C 3.447021722793579 -751.6641845703125 4.934301853179932 -749.1787109375 6.270491600036621 -749.1787109375 M 7.249071598052979 -741.7774658203125 C 7.003131866455078 -741.7774658203125 6.753301620483398 -741.77783203125 6.499801635742188 -741.77783203125 C 6.246521472930908 -741.77783203125 5.996503353118896 -741.7774658203125 5.750773906707764 -741.7774658203125 C 2.513778448104858 -741.7774658203125 1.635742137295892e-06 -741.8383178710938 1.635742137295892e-06 -743.5626220703125 C 1.635742137295892e-06 -745.41796875 2.910061597824097 -747.7828369140625 6.499801635742188 -747.7828369140625 C 10.0895414352417 -747.7828369140625 12.99960136413574 -745.41796875 12.99960136413574 -743.5626220703125 C 12.99960136413574 -741.83837890625 10.48576164245605 -741.7774658203125 7.249071598052979 -741.7774658203125 Z M 6.270491600036621 -748.1787109375 C 4.158761501312256 -748.1787109375 2.447021722793579 -751.331787109375 2.447021722793579 -753.3485107421875 C 2.447021722793579 -755.365234375 4.158761501312256 -756.9998779296875 6.270491600036621 -756.9998779296875 C 8.382071495056152 -756.9998779296875 10.09381198883057 -755.365234375 10.09381198883057 -753.3485107421875 C 10.09381198883057 -751.331787109375 8.382071495056152 -748.1787109375 6.270491600036621 -748.1787109375 Z" stroke="none" fill="navy"/>
  </g>
</svg>
