<svg xmlns="http://www.w3.org/2000/svg" viewBox="0 0 25.081 16.594">
  <path id="Exclusion_10" data-name="Exclusion 10" d="M440.894-742a6.188,6.188,0,0,1-2.579-.564,6.7,6.7,0,0,1-2.234-1.662L431-742.105l3.609-4.6a8.326,8.326,0,0,1-.264-4.7,7.537,7.537,0,0,1,2.38-4.009,6.294,6.294,0,0,1,4.161-1.59,6.279,6.279,0,0,1,2.922.732,6.869,6.869,0,0,1,2.414,2.151,7.723,7.723,0,0,1,.665,1.142,4.347,4.347,0,0,0-1-.117,5.046,5.046,0,0,0-4.761,5.278,5.651,5.651,0,0,0,.841,3,5.334,5.334,0,0,0,.35.5,5.728,5.728,0,0,1-.914-3.166,5.593,5.593,0,0,1,1.007-3.2,4.583,4.583,0,0,1,3.755-2.029,4.431,4.431,0,0,1,2.928,1.119,5.581,5.581,0,0,1,1.764,5.041l3.252,4.318-4.064-2.147c-.046.07-.09.137-.132.2a4.585,4.585,0,0,1-3.755,2.029,4.322,4.322,0,0,1-2.25-.627c.069-.038.142-.08.218-.126a4.81,4.81,0,0,1-1.809-1.412,5.073,5.073,0,0,0,.913,1.045,4.833,4.833,0,0,0,.678.492A6.244,6.244,0,0,1,440.894-742Zm7.112-6.094a.755.755,0,0,0-.634.833.755.755,0,0,0,.634.833.755.755,0,0,0,.634-.833A.755.755,0,0,0,448.006-748.092Zm-2.123,0a.755.755,0,0,0-.634.833.755.755,0,0,0,.634.833.755.755,0,0,0,.634-.833A.755.755,0,0,0,445.883-748.092Zm-2.122,0a.755.755,0,0,0-.634.833.755.755,0,0,0,.634.833.755.755,0,0,0,.633-.833A.755.755,0,0,0,443.761-748.092Z" transform="translate(-429.424 757.5)" fill="#fff" stroke="navy" stroke-width="1"/>
</svg>
