<svg xmlns="http://www.w3.org/2000/svg" viewBox="0 0 49.999 50">
  <path id="Subtraction_21" data-name="Subtraction 21" d="M-420,50a24.842,24.842,0,0,1-9.731-1.965,24.916,24.916,0,0,1-7.946-5.358,24.918,24.918,0,0,1-5.358-7.947A24.845,24.845,0,0,1-445,25a24.845,24.845,0,0,1,1.965-9.731,24.918,24.918,0,0,1,5.358-7.947,24.916,24.916,0,0,1,7.946-5.358A24.842,24.842,0,0,1-420,0a24.844,24.844,0,0,1,9.731,1.965,24.916,24.916,0,0,1,7.947,5.358,24.916,24.916,0,0,1,5.358,7.947A24.844,24.844,0,0,1-395,25a24.844,24.844,0,0,1-1.965,9.731,24.916,24.916,0,0,1-5.358,7.947,24.916,24.916,0,0,1-7.947,5.358A24.844,24.844,0,0,1-420,50Zm-1.512-21.544h0l.114,6.56L-405,24.23l-16.763-10.209.126,7.217-14.416.252.126,7.217,14.415-.251Z" transform="translate(445)" fill="#ed4264"/>
</svg>
