<svg xmlns="http://www.w3.org/2000/svg" viewBox="0 0 16.999 5">
  <g id="Union_49" data-name="Union 49" transform="translate(445 757)" fill="navy">
    <path d="M -430.4997253417969 -752.5004272460938 C -431.6026306152344 -752.5004272460938 -432.4999084472656 -753.3972778320312 -432.4999084472656 -754.4996948242188 C -432.4999084472656 -755.6026611328125 -431.6026306152344 -756.4999389648438 -430.4997253417969 -756.4999389648438 C -429.3973083496094 -756.4999389648438 -428.5003967285156 -755.6026611328125 -428.5003967285156 -754.4996948242188 C -428.5003967285156 -753.3972778320312 -429.3973083496094 -752.5004272460938 -430.4997253417969 -752.5004272460938 Z M -436.5 -752.5004272460938 C -437.6029052734375 -752.5004272460938 -438.5002136230469 -753.3972778320312 -438.5002136230469 -754.4996948242188 C -438.5002136230469 -755.6026611328125 -437.6029052734375 -756.4999389648438 -436.5 -756.4999389648438 C -435.3970947265625 -756.4999389648438 -434.4998168945312 -755.6026611328125 -434.4998168945312 -754.4996948242188 C -434.4998168945312 -753.3972778320312 -435.3970947265625 -752.5004272460938 -436.5 -752.5004272460938 Z M -442.5003051757812 -752.5004272460938 C -443.6027221679688 -752.5004272460938 -444.4996032714844 -753.3972778320312 -444.4996032714844 -754.4996948242188 C -444.4996032714844 -755.6026611328125 -443.6027221679688 -756.4999389648438 -442.5003051757812 -756.4999389648438 C -441.3973999023438 -756.4999389648438 -440.5001220703125 -755.6026611328125 -440.5001220703125 -754.4996948242188 C -440.5001220703125 -753.3972778320312 -441.3973999023438 -752.5004272460938 -442.5003051757812 -752.5004272460938 Z" stroke="none"/>
    <path d="M -430.4997253417969 -753.0004272460938 C -429.6730041503906 -753.0004272460938 -429.0003967285156 -753.6729736328125 -429.0003967285156 -754.4996948242188 C -429.0003967285156 -755.326904296875 -429.6730041503906 -755.9999389648438 -430.4997253417969 -755.9999389648438 C -431.3269348144531 -755.9999389648438 -431.9999084472656 -755.326904296875 -431.9999084472656 -754.4996948242188 C -431.9999084472656 -753.6729736328125 -431.3269348144531 -753.0004272460938 -430.4997253417969 -753.0004272460938 M -436.5 -753.0004272460938 C -435.6727905273438 -753.0004272460938 -434.9998168945312 -753.6729736328125 -434.9998168945312 -754.4996948242188 C -434.9998168945312 -755.326904296875 -435.6727905273438 -755.9999389648438 -436.5 -755.9999389648438 C -437.3272094726562 -755.9999389648438 -438.0002136230469 -755.326904296875 -438.0002136230469 -754.4996948242188 C -438.0002136230469 -753.6729736328125 -437.3272094726562 -753.0004272460938 -436.5 -753.0004272460938 M -442.5003051757812 -753.0004272460938 C -441.673095703125 -753.0004272460938 -441.0001220703125 -753.6729736328125 -441.0001220703125 -754.4996948242188 C -441.0001220703125 -755.326904296875 -441.673095703125 -755.9999389648438 -442.5003051757812 -755.9999389648438 C -443.3270263671875 -755.9999389648438 -443.9996032714844 -755.326904296875 -443.9996032714844 -754.4996948242188 C -443.9996032714844 -753.6729736328125 -443.3270263671875 -753.0004272460938 -442.5003051757812 -753.0004272460938 M -430.4997253417969 -752.0004272460938 C -431.8803100585938 -752.0004272460938 -432.9999084472656 -753.119140625 -432.9999084472656 -754.4996948242188 C -432.9999084472656 -755.8803100585938 -431.8803100585938 -756.9999389648438 -430.4997253417969 -756.9999389648438 C -429.1191101074219 -756.9999389648438 -428.0003967285156 -755.8803100585938 -428.0003967285156 -754.4996948242188 C -428.0003967285156 -753.119140625 -429.1191101074219 -752.0004272460938 -430.4997253417969 -752.0004272460938 Z M -436.5 -752.0004272460938 C -437.880615234375 -752.0004272460938 -439.0002136230469 -753.119140625 -439.0002136230469 -754.4996948242188 C -439.0002136230469 -755.8803100585938 -437.880615234375 -756.9999389648438 -436.5 -756.9999389648438 C -435.1194152832031 -756.9999389648438 -433.9998168945312 -755.8803100585938 -433.9998168945312 -754.4996948242188 C -433.9998168945312 -753.119140625 -435.1194152832031 -752.0004272460938 -436.5 -752.0004272460938 Z M -442.5003051757812 -752.0004272460938 C -443.8809204101562 -752.0004272460938 -444.9996032714844 -753.119140625 -444.9996032714844 -754.4996948242188 C -444.9996032714844 -755.8803100585938 -443.8809204101562 -756.9999389648438 -442.5003051757812 -756.9999389648438 C -441.1197204589844 -756.9999389648438 -440.0001220703125 -755.8803100585938 -440.0001220703125 -754.4996948242188 C -440.0001220703125 -753.119140625 -441.1197204589844 -752.0004272460938 -442.5003051757812 -752.0004272460938 Z" stroke="none" fill="navy"/>
  </g>
</svg>
