<svg xmlns="http://www.w3.org/2000/svg" width="323.359" height="298.478" viewBox="0 0 323.359 298.478">
  <g id="Component_4_1" data-name="Component 4 – 1" transform="translate(0 0.479)">
    <g id="Ellipse_5" data-name="Ellipse 5" transform="translate(171.394 169.5)" fill="#0bda51" stroke="#0bda51" stroke-width="1" opacity="0.7">
      <circle cx="3" cy="3" r="3" stroke="none"/>
      <circle cx="3" cy="3" r="2.5" fill="none"/>
    </g>
    <g id="Ellipse_10" data-name="Ellipse 10" transform="translate(178.394 40.5)" fill="#0bda51" stroke="#0bda51" stroke-width="1" opacity="0.7">
      <circle cx="2.5" cy="2.5" r="2.5" stroke="none"/>
      <circle cx="2.5" cy="2.5" r="2" fill="none"/>
    </g>
    <g id="Ellipse_11" data-name="Ellipse 11" transform="translate(261.394 51.5)" fill="#ff7f00" stroke="#ff7f00" stroke-width="1" opacity="0.7">
      <circle cx="3.5" cy="3.5" r="3.5" stroke="none"/>
      <circle cx="3.5" cy="3.5" r="3" fill="none"/>
    </g>
    <g id="Ellipse_12" data-name="Ellipse 12" transform="translate(25.394 25.5)" fill="#0bda51" stroke="#0bda51" stroke-width="1" opacity="0.7">
      <circle cx="2" cy="2" r="2" stroke="none"/>
      <circle cx="2" cy="2" r="1.5" fill="none"/>
    </g>
    <line id="Line_1" data-name="Line 1" y1="148" transform="translate(3.894)" fill="none" stroke="navy" stroke-width="1" opacity="0.4"/>
    <g id="Ellipse_13" data-name="Ellipse 13" transform="translate(190.394 240.5)" fill="#daa520" stroke="#daa520" stroke-width="1">
      <circle cx="3.5" cy="3.5" r="3.5" stroke="none"/>
      <circle cx="3.5" cy="3.5" r="3" fill="none"/>
    </g>
    <line id="Line_2" data-name="Line 2" x2="79" y2="97" transform="translate(5.894 153)" fill="none" stroke="navy" stroke-width="1" opacity="0.4"/>
    <line id="Line_3" data-name="Line 3" x2="131" y2="37" transform="translate(91.894 256)" fill="none" stroke="navy" stroke-width="1" opacity="0.4"/>
    <line id="Line_4" data-name="Line 4" x2="93" y2="4" transform="translate(229.394 293.5)" fill="none" stroke="navy" stroke-width="1" opacity="0.4"/>
    <line id="Line_5" data-name="Line 5" x1="22" y1="26" transform="translate(3.894)" fill="none" stroke="navy" stroke-width="1" opacity="0.4"/>
    <line id="Line_7" data-name="Line 7" x1="23" y2="118" transform="translate(3.894 29.1)" fill="none" stroke="navy" stroke-width="1" opacity="0.4"/>
    <line id="Line_8" data-name="Line 8" x2="135" y2="77" transform="translate(29.394 28.4)" fill="none" stroke="navy" stroke-width="1" opacity="0.4"/>
    <line id="Line_9" data-name="Line 9" x1="24" y1="55" transform="translate(237.894)" fill="none" stroke="navy" stroke-width="1" opacity="0.4"/>
    <line id="Line_10" data-name="Line 10" y1="52" transform="translate(264.894)" fill="none" stroke="navy" stroke-width="1" opacity="0.4"/>
    <line id="Line_11" data-name="Line 11" y1="55" x2="54" transform="translate(268.394 0.2)" fill="none" stroke="navy" stroke-width="1" opacity="0.4"/>
    <line id="Line_12" data-name="Line 12" x1="23" y2="59.5" transform="translate(241.894 59)" fill="none" stroke="navy" stroke-width="1" opacity="0.4"/>
    <line id="Line_13" data-name="Line 13" x1="39" y2="231" transform="translate(225.894 59)" fill="none" stroke="navy" stroke-width="1" opacity="0.4"/>
    <line id="Line_14" data-name="Line 14" x2="23" y2="179" transform="translate(264.894 59)" fill="none" stroke="navy" stroke-width="1" opacity="0.4"/>
    <line id="Line_15" data-name="Line 15" x2="54" y2="23" transform="translate(268.894 55)" fill="none" stroke="navy" stroke-width="1" opacity="0.4"/>
    <line id="Line_16" data-name="Line 16" y1="65" x2="36" transform="translate(286.894 108)" fill="none" stroke="navy" stroke-width="1" opacity="0.4"/>
    <line id="Line_17" data-name="Line 17" x2="33" y2="22" transform="translate(289.894 180)" fill="none" stroke="navy" stroke-width="1" opacity="0.4"/>
    <line id="Line_18" data-name="Line 18" x1="88" y2="67" transform="translate(195.894 175)" fill="none" stroke="navy" stroke-width="1" opacity="0.4"/>
    <line id="Line_19" data-name="Line 19" x1="162" y1="135" transform="translate(124.894 38)" fill="none" stroke="navy" stroke-width="1" opacity="0.4"/>
    <line id="Line_20" data-name="Line 20" y1="158" x2="42" transform="translate(54.894)" fill="none" stroke="navy" stroke-width="1" opacity="0.4"/>
    <line id="Line_21" data-name="Line 21" x2="103" y2="106" transform="translate(68.894 64)" fill="none" stroke="navy" stroke-width="1" opacity="0.4"/>
    <line id="Line_22" data-name="Line 22" x1="8" y2="141" transform="translate(88.894 107)" fill="none" stroke="navy" stroke-width="1" opacity="0.4"/>
    <line id="Line_23" data-name="Line 23" x2="170" y2="130" transform="translate(54.894 160)" fill="none" stroke="navy" stroke-width="1" opacity="0.4"/>
    <line id="Line_24" data-name="Line 24" y1="80" x2="43" transform="translate(124.894 111)" fill="none" stroke="navy" stroke-width="1" opacity="0.4"/>
    <line id="Line_25" data-name="Line 25" x2="60" y2="73" transform="translate(180.894 46)" fill="none" stroke="navy" stroke-width="1" opacity="0.4"/>
    <line id="Line_26" data-name="Line 26" x1="82" y2="61" transform="translate(96.894 43)" fill="none" stroke="navy" stroke-width="1" opacity="0.4"/>
    <line id="Line_27" data-name="Line 27" x2="13" y2="195" transform="translate(180.894 46)" fill="none" stroke="navy" stroke-width="1" opacity="0.4"/>
    <line id="Line_28" data-name="Line 28" x2="115" y2="130" transform="translate(171.894 108)" fill="none" stroke="navy" stroke-width="1" opacity="0.4"/>
    <line id="Line_29" data-name="Line 29" x1="66" y2="42" transform="translate(174.894 128)" fill="none" stroke="navy" stroke-width="1" opacity="0.4"/>
    <line id="Line_30" data-name="Line 30" x1="56" y2="110" transform="translate(227.894 180)" fill="none" stroke="navy" stroke-width="1" opacity="0.4"/>
    <line id="Line_31" data-name="Line 31" x2="32" y2="50" transform="translate(290.894 243)" fill="none" stroke="navy" stroke-width="1" opacity="0.4"/>
    <line id="Line_32" data-name="Line 32" x1="58" y2="51" transform="translate(229.894 241)" fill="none" stroke="navy" stroke-width="1" opacity="0.4"/>
    <line id="Line_33" data-name="Line 33" x1="99" y2="6" transform="translate(91.894 244)" fill="none" stroke="navy" stroke-width="1" opacity="0.4"/>
    <line id="Line_34" data-name="Line 34" y1="113" x2="47" transform="translate(194.894 128)" fill="none" stroke="navy" stroke-width="1" opacity="0.4"/>
    <line id="Line_35" data-name="Line 35" x1="47" y1="7" transform="translate(5.894 153)" fill="none" stroke="navy" stroke-width="1" opacity="0.4"/>
    <path id="Path_37" data-name="Path 37" d="M1.586.342,18,184" transform="translate(66.894 64)" fill="navy" stroke="navy" stroke-width="1" opacity="0.4"/>
    <line id="Line_37" data-name="Line 37" x1="36" y2="53" transform="translate(88.894 195)" fill="none" stroke="navy" stroke-width="1" opacity="0.4"/>
    <line id="Line_38" data-name="Line 38" x1="115" y1="13" transform="translate(56.894 160)" fill="none" stroke="navy" stroke-width="1" opacity="0.4"/>
    <line id="Line_39" data-name="Line 39" x1="19" y1="32" transform="translate(101.894)" fill="none" stroke="navy" stroke-width="1" opacity="0.4"/>
    <line id="Line_40" data-name="Line 40" y1="31" x2="103" transform="translate(126.894)" fill="none" stroke="navy" stroke-width="1" opacity="0.4"/>
    <line id="Line_41" data-name="Line 41" y1="30" x2="20" transform="translate(126.894)" fill="none" stroke="navy" stroke-width="1" opacity="0.4"/>
    <line id="Line_42" data-name="Line 42" x1="121" y1="41" transform="translate(59.894)" fill="none" stroke="navy" stroke-width="1" opacity="0.4"/>
    <line id="Line_43" data-name="Line 43" y1="41" x2="3" transform="translate(180.894)" fill="none" stroke="navy" stroke-width="1" opacity="0.4"/>
    <line id="Line_44" data-name="Line 44" y1="43" x2="51" transform="translate(182.894)" fill="none" stroke="navy" stroke-width="1" opacity="0.4"/>
    <line id="Line_45" data-name="Line 45" x1="14" y1="59" transform="translate(54.894)" fill="none" stroke="navy" stroke-width="1" opacity="0.4"/>
    <line id="Line_46" data-name="Line 46" x2="51" y2="114" transform="translate(174.894 176)" fill="none" stroke="navy" stroke-width="1" opacity="0.4"/>
    <line id="Line_47" data-name="Line 47" y1="85" x2="61" transform="translate(5.894 64)" fill="none" stroke="navy" stroke-width="1" opacity="0.4"/>
    <line id="Line_48" data-name="Line 48" x2="187" y2="66" transform="translate(96.894 107)" fill="none" stroke="navy" stroke-width="1" opacity="0.4"/>
    <line id="Line_50" data-name="Line 50" y1="80" x2="32" transform="translate(290.894 158)" fill="none" stroke="navy" stroke-width="1" opacity="0.4"/>
    <line id="Line_51" data-name="Line 51" y1="19" x2="151" transform="translate(171.894 88)" fill="none" stroke="navy" stroke-width="1" opacity="0.4"/>
    <line id="Line_52" data-name="Line 52" y2="153" transform="translate(122.894 38)" fill="none" stroke="navy" stroke-width="1" opacity="0.4"/>
    <line id="Line_6" data-name="Line 6" y1="26" x2="22" transform="translate(27.894)" fill="none" stroke="navy" stroke-width="1" opacity="0.4"/>
    <line id="Line_49" data-name="Line 49" x2="140" y2="114" transform="translate(182.894 43)" fill="none" stroke="navy" stroke-width="1" opacity="0.4"/>
    <g id="Component_1_1" data-name="Component 1 – 1" transform="translate(78 238.5)">
      <g id="Union_17" data-name="Union 17" fill="navy">
        <path d="M 6.860490798950195 18.32387351989746 C 5.700691223144531 18.32388305664062 4.035221099853516 18.22693252563477 2.687381029129028 17.76498413085938 C 1.237661004066467 17.26812362670898 0.5225610136985779 16.49672317504883 0.5012210011482239 15.40671348571777 C 0.4674509763717651 13.6814136505127 1.146031022071838 12.00912284851074 2.411971092224121 10.69788360595703 C 3.896811008453369 9.159913063049316 6.057071208953857 8.257452964782715 8.338821411132812 8.221902847290039 C 8.386521339416504 8.221162796020508 8.434491157531738 8.220783233642578 8.482010841369629 8.220783233642578 C 10.59418106079102 8.220783233642578 12.58578109741211 8.946183204650879 14.08992099761963 10.26336288452148 C 15.58000087738037 11.56822299957275 16.42062187194824 13.30799293518066 16.4569206237793 15.1621732711792 C 16.46862030029297 15.76169300079346 16.27154159545898 16.25991249084473 15.85443115234375 16.68525314331055 C 14.44139099121094 18.12618255615234 10.98171138763428 18.28181266784668 9.559841156005859 18.2818431854248 C 8.968360900878906 18.28186225891113 8.584300994873047 18.25656318664551 8.580491065979004 18.25630378723145 L 8.539091110229492 18.2535228729248 L 8.497640609741211 18.25760269165039 C 8.491050720214844 18.25825309753418 7.813011169433594 18.3238639831543 6.860490798950195 18.32387351989746 Z M 8.453340530395508 7.063642978668213 C 6.391420841217041 7.063642978668213 4.713921070098877 5.59138298034668 4.713921070098877 3.781723260879517 C 4.713921070098877 1.97217321395874 6.391420841217041 0.5000031590461731 8.453340530395508 0.5000031590461731 C 10.515380859375 0.5000031590461731 12.19298076629639 1.97217321395874 12.19298076629639 3.781723260879517 C 12.19298076629639 5.59138298034668 10.515380859375 7.063642978668213 8.453340530395508 7.063642978668213 Z" stroke="none"/>
        <path d="M 6.860490798950195 17.82387351989746 C 7.784750938415527 17.8238639831543 8.442450523376465 17.76061248779297 8.44840145111084 17.76003265380859 L 8.531291007995605 17.75193405151367 L 8.613810539245605 17.75741386413574 C 8.617481231689453 17.75766372680664 8.988210678100586 17.78186225891113 9.559830665588379 17.7818431854248 C 12.38949108123779 17.78179359436035 14.60916137695312 17.2409839630127 15.4974308013916 16.33518409729004 C 15.8200511932373 16.00620269775391 15.96608066558838 15.63656330108643 15.95701122283936 15.17195320129395 C 15.92350101470947 13.4601936340332 15.14344120025635 11.85054302215576 13.76052093505859 10.63952350616455 C 12.34757137298584 9.402203559875488 10.47296142578125 8.720783233642578 8.482010841369629 8.720783233642578 C 8.437061309814453 8.720783233642578 8.391671180725098 8.721142768859863 8.346611022949219 8.721842765808105 C 6.196831226348877 8.755332946777344 4.164851188659668 9.602152824401855 2.771681070327759 11.04517364501953 C 1.598770976066589 12.26005363464355 0.9699810147285461 13.80553340911865 1.001130938529968 15.39693355560303 C 1.01180100440979 15.94216346740723 1.215021014213562 16.73180389404297 2.849490880966187 17.29199409484863 C 4.132201194763184 17.73162269592285 5.738680839538574 17.82388305664062 6.860490798950195 17.82387351989746 M 8.453340530395508 6.563642978668213 C 10.23968124389648 6.563642978668213 11.69298076629639 5.315683364868164 11.69298076629639 3.781723260879517 C 11.69298076629639 2.247873067855835 10.23968124389648 1.000003218650818 8.453340530395508 1.000003218650818 C 6.667120933532715 1.000003218650818 5.213921070098877 2.247873067855835 5.213921070098877 3.781723260879517 C 5.213921070098877 5.315683364868164 6.667120933532715 6.563642978668213 8.453340530395508 6.563642978668213 M 6.860500812530518 18.82387351989746 C 4.387111186981201 18.82390403747559 0.05967099219560623 18.39724349975586 0.00132099085021764 15.41650295257568 C -0.0804390087723732 11.2397632598877 3.649000883102417 7.79490327835083 8.33103084564209 7.721963405609131 C 8.381325721740723 7.721179962158203 8.431906700134277 7.720786571502686 8.482008934020996 7.720786571502686 C 13.09596729278564 7.720786571502686 16.87593841552734 11.02069854736328 16.95682144165039 15.15238285064697 C 17.02077865600586 18.42846298217773 11.80992889404297 18.78179931640625 9.55985164642334 18.7818489074707 C 8.94126033782959 18.78186225891113 8.546880722045898 18.75517272949219 8.546880722045898 18.75517272949219 C 8.546880722045898 18.75517272949219 7.852780818939209 18.8238639831543 6.860500812530518 18.82387351989746 Z M 8.453340530395508 7.563642978668213 C 6.11211109161377 7.563642978668213 4.213921070098877 5.8703932762146 4.213921070098877 3.781723260879517 C 4.213921070098877 1.693263173103333 6.11211109161377 3.179016175636207e-06 8.453340530395508 3.179016175636207e-06 C 10.79479122161865 3.179016175636207e-06 12.69298076629639 1.693263173103333 12.69298076629639 3.781723260879517 C 12.69298076629639 5.8703932762146 10.79479122161865 7.563642978668213 8.453340530395508 7.563642978668213 Z" stroke="none" fill="navy"/>
      </g>
    </g>
    <g id="Component_1_2" data-name="Component 1 – 2" transform="translate(0 141.5)">
      <g id="Union_17-2" data-name="Union 17" transform="translate(0)" fill="#ff7f00">
        <path d="M 4.433068752288818 11.32387924194336 C 3.696069002151489 11.32387924194336 2.63922905921936 11.26448917388916 1.789798974990845 10.98148918151855 C 0.5185589790344238 10.55795001983643 0.5051489472389221 9.892279624938965 0.5007489323616028 9.673529624938965 C 0.4804189503192902 8.664219856262207 0.8835289478302002 7.679199695587158 1.635798931121826 6.899909496307373 C 2.565129041671753 5.937209606170654 3.933789014816284 5.372419357299805 5.390849113464355 5.350349426269531 C 5.420828819274902 5.349899768829346 5.450978755950928 5.349669456481934 5.480838775634766 5.349669456481934 C 6.805348873138428 5.349669456481934 8.052748680114746 5.790589809417725 8.993259429931641 6.591199398040771 C 9.914909362792969 7.375759601593018 10.43478870391846 8.418649673461914 10.45712852478027 9.527770042419434 C 10.46353912353516 9.846819877624512 10.36206912994385 10.10200977325439 10.13778877258301 10.33083915710449 C 9.535749435424805 10.94510936737061 8.092208862304688 11.29743957519531 6.177309036254883 11.2974796295166 C 5.801599025726318 11.2974796295166 5.557778835296631 11.28193950653076 5.55535888671875 11.28177928924561 L 5.51517915725708 11.27917957305908 L 5.474878787994385 11.28302001953125 C 5.470808982849121 11.28340911865234 5.039319038391113 11.3238697052002 4.433058738708496 11.32387924194336 L 4.433068752288818 11.32387924194336 Z M 5.462318897247314 4.250969409942627 C 4.227509021759033 4.250969409942627 3.22291898727417 3.409599542617798 3.22291898727417 2.375419616699219 C 3.22291898727417 1.341309547424316 4.227509021759033 0.4999995827674866 5.462318897247314 0.4999995827674866 C 6.697198867797852 0.4999995827674866 7.701848983764648 1.341309547424316 7.701848983764648 2.375419616699219 C 7.701848983764648 3.409599542617798 6.697198867797852 4.250969409942627 5.462318897247314 4.250969409942627 Z" stroke="none"/>
        <path d="M 4.433058738708496 10.82387924194336 L 4.433048725128174 10.82387924194336 C 5.011959075927734 10.8238697052002 5.423768997192383 10.78561973571777 5.426989078521729 10.78531932830811 L 5.507598876953125 10.7777099609375 L 5.587509155273438 10.7828197479248 C 5.589798927307129 10.78296947479248 5.820778846740723 10.7974796295166 6.177299022674561 10.7974796295166 C 7.906309127807617 10.79743957519531 9.28705883026123 10.48452949523926 9.780698776245117 9.980859756469727 C 9.909758567810059 9.849179267883301 9.960908889770508 9.720809936523438 9.957228660583496 9.537839889526367 C 9.916269302368164 7.504169464111328 7.908168792724609 5.849669456481934 5.480838775634766 5.849669456481934 C 5.453458786010742 5.849669456481934 5.42582893371582 5.849879741668701 5.39841890335083 5.85029935836792 C 4.073429107666016 5.870359420776367 2.833128929138184 6.379499435424805 1.995528936386108 7.247169494628906 C 1.336349010467529 7.930029392242432 0.9830189347267151 8.788159370422363 1.000648975372314 9.663459777832031 C 1.003848910331726 9.822549819946289 1.011358976364136 10.19511985778809 1.947848916053772 10.50711917877197 C 2.733679056167603 10.76892948150635 3.733058929443359 10.82387924194336 4.433058738708496 10.82387924194336 M 5.462318897247314 3.750969648361206 C 6.421498775482178 3.750969648361206 7.201848983764648 3.133899688720703 7.201848983764648 2.375419616699219 C 7.201848983764648 1.61700963973999 6.421498775482178 0.9999995827674866 5.462318897247314 0.9999995827674866 C 4.503209114074707 0.9999995827674866 3.72291898727417 1.61700963973999 3.72291898727417 2.375419616699219 C 3.72291898727417 3.133899688720703 4.503209114074707 3.750969648361206 5.462318897247314 3.750969648361206 M 4.433068752288818 11.82387924194336 C 2.834828853607178 11.82388973236084 0.0385589599609375 11.55588912963867 0.0008489613537676632 9.683599472045898 C -0.05198103934526443 7.060049533843994 2.357878923416138 4.896219730377197 5.383278846740723 4.850409507751465 C 5.415778160095215 4.849917411804199 5.44846248626709 4.84967041015625 5.480837345123291 4.84967041015625 C 8.462247848510742 4.84967041015625 10.90475654602051 6.922451019287109 10.95702934265137 9.517699241638184 C 10.99835681915283 11.57550716400146 7.631261348724365 11.79744529724121 6.177323818206787 11.79747581481934 C 5.777606964111328 11.79748344421387 5.522758960723877 11.78071975708008 5.522758960723877 11.78071975708008 C 5.522758960723877 11.78071975708008 5.074248790740967 11.8238697052002 4.433068752288818 11.82387924194336 Z M 5.462318897247314 4.750969409942627 C 3.9494788646698 4.750969409942627 2.72291898727417 3.687379598617554 2.72291898727417 2.375419616699219 C 2.72291898727417 1.063589572906494 3.9494788646698 -4.168701082107873e-07 5.462318897247314 -4.168701082107873e-07 C 6.975288867950439 -4.168701082107873e-07 8.201848983764648 1.063589572906494 8.201848983764648 2.375419616699219 C 8.201848983764648 3.687379598617554 6.975288867950439 4.750969409942627 5.462318897247314 4.750969409942627 Z" stroke="none" fill="#ff7f00"/>
      </g>
    </g>
    <g id="Component_1_3" data-name="Component 1 – 3" transform="translate(220 284.5)">
      <g id="Union_17-3" data-name="Union 17" transform="translate(0)" fill="red">
        <path d="M 4.433068752288818 11.32387924194336 C 3.696069002151489 11.32387924194336 2.63922905921936 11.26448917388916 1.789798974990845 10.98148918151855 C 0.5185589790344238 10.55795001983643 0.5051489472389221 9.892279624938965 0.5007489323616028 9.673529624938965 C 0.4804189503192902 8.664219856262207 0.8835289478302002 7.679199695587158 1.635798931121826 6.899909496307373 C 2.565129041671753 5.937209606170654 3.933789014816284 5.372419357299805 5.390849113464355 5.350349426269531 C 5.420828819274902 5.349899768829346 5.450978755950928 5.349669456481934 5.480838775634766 5.349669456481934 C 6.805348873138428 5.349669456481934 8.052748680114746 5.790589809417725 8.993259429931641 6.591199398040771 C 9.914909362792969 7.375759601593018 10.43478870391846 8.418649673461914 10.45712852478027 9.527770042419434 C 10.46353912353516 9.846819877624512 10.36206912994385 10.10200977325439 10.13778877258301 10.33083915710449 C 9.535749435424805 10.94510936737061 8.092208862304688 11.29743957519531 6.177309036254883 11.2974796295166 C 5.801599025726318 11.2974796295166 5.557778835296631 11.28193950653076 5.55535888671875 11.28177928924561 L 5.51517915725708 11.27917957305908 L 5.474878787994385 11.28302001953125 C 5.470808982849121 11.28340911865234 5.039319038391113 11.3238697052002 4.433058738708496 11.32387924194336 L 4.433068752288818 11.32387924194336 Z M 5.462318897247314 4.250969409942627 C 4.227509021759033 4.250969409942627 3.22291898727417 3.409599542617798 3.22291898727417 2.375419616699219 C 3.22291898727417 1.341309547424316 4.227509021759033 0.4999995827674866 5.462318897247314 0.4999995827674866 C 6.697198867797852 0.4999995827674866 7.701848983764648 1.341309547424316 7.701848983764648 2.375419616699219 C 7.701848983764648 3.409599542617798 6.697198867797852 4.250969409942627 5.462318897247314 4.250969409942627 Z" stroke="none"/>
        <path d="M 4.433058738708496 10.82387924194336 L 4.433048725128174 10.82387924194336 C 5.011959075927734 10.8238697052002 5.423768997192383 10.78561973571777 5.426989078521729 10.78531932830811 L 5.507598876953125 10.7777099609375 L 5.587509155273438 10.7828197479248 C 5.589798927307129 10.78296947479248 5.820778846740723 10.7974796295166 6.177299022674561 10.7974796295166 C 7.906309127807617 10.79743957519531 9.28705883026123 10.48452949523926 9.780698776245117 9.980859756469727 C 9.909758567810059 9.849179267883301 9.960908889770508 9.720809936523438 9.957228660583496 9.537839889526367 C 9.916269302368164 7.504169464111328 7.908168792724609 5.849669456481934 5.480838775634766 5.849669456481934 C 5.453458786010742 5.849669456481934 5.42582893371582 5.849879741668701 5.39841890335083 5.85029935836792 C 4.073429107666016 5.870359420776367 2.833128929138184 6.379499435424805 1.995528936386108 7.247169494628906 C 1.336349010467529 7.930029392242432 0.9830189347267151 8.788159370422363 1.000648975372314 9.663459777832031 C 1.003848910331726 9.822549819946289 1.011358976364136 10.19511985778809 1.947848916053772 10.50711917877197 C 2.733679056167603 10.76892948150635 3.733058929443359 10.82387924194336 4.433058738708496 10.82387924194336 M 5.462318897247314 3.750969648361206 C 6.421498775482178 3.750969648361206 7.201848983764648 3.133899688720703 7.201848983764648 2.375419616699219 C 7.201848983764648 1.61700963973999 6.421498775482178 0.9999995827674866 5.462318897247314 0.9999995827674866 C 4.503209114074707 0.9999995827674866 3.72291898727417 1.61700963973999 3.72291898727417 2.375419616699219 C 3.72291898727417 3.133899688720703 4.503209114074707 3.750969648361206 5.462318897247314 3.750969648361206 M 4.433068752288818 11.82387924194336 C 2.834828853607178 11.82388973236084 0.0385589599609375 11.55588912963867 0.0008489613537676632 9.683599472045898 C -0.05198103934526443 7.060049533843994 2.357878923416138 4.896219730377197 5.383278846740723 4.850409507751465 C 5.415778160095215 4.849917411804199 5.44846248626709 4.84967041015625 5.480837345123291 4.84967041015625 C 8.462247848510742 4.84967041015625 10.90475654602051 6.922451019287109 10.95702934265137 9.517699241638184 C 10.99835681915283 11.57550716400146 7.631261348724365 11.79744529724121 6.177323818206787 11.79747581481934 C 5.777606964111328 11.79748344421387 5.522758960723877 11.78071975708008 5.522758960723877 11.78071975708008 C 5.522758960723877 11.78071975708008 5.074248790740967 11.8238697052002 4.433068752288818 11.82387924194336 Z M 5.462318897247314 4.750969409942627 C 3.9494788646698 4.750969409942627 2.72291898727417 3.687379598617554 2.72291898727417 2.375419616699219 C 2.72291898727417 1.063589572906494 3.9494788646698 -4.168701082107873e-07 5.462318897247314 -4.168701082107873e-07 C 6.975288867950439 -4.168701082107873e-07 8.201848983764648 1.063589572906494 8.201848983764648 2.375419616699219 C 8.201848983764648 3.687379598617554 6.975288867950439 4.750969409942627 5.462318897247314 4.750969409942627 Z" stroke="none" fill="red"/>
      </g>
    </g>
    <g id="Component_1_4" data-name="Component 1 – 4" transform="translate(120 189.5)">
      <g id="Union_17-4" data-name="Union 17" transform="translate(0)" fill="red">
        <path d="M 3.219353199005127 8.323878288269043 C 2.695233106613159 8.323878288269043 1.944933176040649 8.280918121337891 1.346963167190552 8.076188087463379 C 0.5117631554603577 7.790238380432129 0.5036031603813171 7.373668193817139 0.5005232095718384 7.216838359832764 C 0.4860831797122955 6.479918479919434 0.7776032090187073 5.763888359069824 1.321373224258423 5.200658321380615 C 1.969563126564026 4.529268264770508 2.915703296661377 4.135268211364746 3.91718316078186 4.119688510894775 C 3.938193082809448 4.119358539581299 3.959333181381226 4.119198322296143 3.980253219604492 4.119198322296143 C 5.865113258361816 4.119198322296143 7.424883365631104 5.462048530578613 7.45723295211792 7.11262845993042 C 7.461303234100342 7.321198463439941 7.395743370056152 7.487148284912109 7.250893115997314 7.634858131408691 C 6.839933395385742 8.053937911987305 5.806343078613281 8.30414867401123 4.486042976379395 8.304168701171875 C 4.218993186950684 8.304178237915039 4.045813083648682 8.292898178100586 4.044093132019043 8.292788505554199 L 4.002902984619141 8.290058135986328 L 3.961503267288208 8.294097900390625 C 3.958763122558594 8.294358253479004 3.651353120803833 8.323868751525879 3.219343185424805 8.323878288269043 L 3.219353199005127 8.323878288269043 Z M 3.966803073883057 3.045528411865234 C 3.145553112030029 3.045528411865234 2.477413177490234 2.47454833984375 2.477413177490234 1.77271831035614 C 2.477413177490234 1.070938348770142 3.145553112030029 0.4999983012676239 3.966803073883057 0.4999983012676239 C 4.788103103637695 0.4999983012676239 5.456283092498779 1.070938348770142 5.456283092498779 1.77271831035614 C 5.456283092498779 2.47454833984375 4.788103103637695 3.045528411865234 3.966803073883057 3.045528411865234 Z" stroke="none"/>
        <path d="M 3.219343185424805 7.823878288269043 L 3.219333171844482 7.823878288269043 C 3.6234130859375 7.823868274688721 3.910733222961426 7.796668529510498 3.912313222885132 7.796518325805664 L 3.9951331615448 7.788548469543457 L 4.07684326171875 7.793858528137207 C 4.078433036804199 7.793958187103271 4.238523006439209 7.804178237915039 4.486032962799072 7.804168224334717 C 5.797553062438965 7.804148197174072 6.640393257141113 7.543288230895996 6.893893241882324 7.284778118133545 C 6.945163249969482 7.232508182525635 6.958793163299561 7.197588443756104 6.95732307434082 7.122428417205811 C 6.930273056030273 5.742138385772705 5.594763278961182 4.619198322296143 3.980253219604492 4.619198322296143 C 3.96194314956665 4.619198322296143 3.943453073501587 4.619338512420654 3.924963235855103 4.619628429412842 C 3.055453300476074 4.633158206939697 2.237593173980713 4.971518516540527 1.681083202362061 5.547938346862793 C 1.230343222618103 6.01481819152832 0.9886131882667542 6.604028224945068 1.000433206558228 7.207048416137695 C 1.001633167266846 7.268178462982178 1.004813194274902 7.430548191070557 1.508923172950745 7.603148460388184 C 1.92469322681427 7.745488166809082 2.532133102416992 7.823888301849365 3.219343185424805 7.823878288269043 M 3.966803073883057 2.545528411865234 C 4.503153324127197 2.545528411865234 4.956283092498779 2.191628217697144 4.956283092498779 1.77271831035614 C 4.956283092498779 1.353858351707458 4.503153324127197 0.9999983310699463 3.966803073883057 0.9999983310699463 C 3.430503129959106 0.9999983310699463 2.977413177490234 1.353858351707458 2.977413177490234 1.77271831035614 C 2.977413177490234 2.191628217697144 3.430503129959106 2.545528411865234 3.966803073883057 2.545528411865234 M 3.219353199005127 8.823878288269043 C 2.058693170547485 8.823888778686523 0.02800318412482738 8.62388801574707 0.0006231849547475576 7.226638317108154 C -0.03774681687355042 5.26874828338623 1.712323188781738 3.653938293457031 3.909403085708618 3.61974835395813 C 3.93300461769104 3.619380950927734 3.956746816635132 3.619196653366089 3.980257749557495 3.619196653366089 C 6.14539909362793 3.619196653366089 7.919175148010254 5.166059494018555 7.957133293151855 7.102828502655029 C 7.987143039703369 8.638524055480957 5.541919708251953 8.80415153503418 4.486051559448242 8.804173469543457 C 4.19577169418335 8.804179191589355 4.010693073272705 8.791667938232422 4.010693073272705 8.791667938232422 C 4.010693073272705 8.791667938232422 3.684983253479004 8.823868751525879 3.219353199005127 8.823878288269043 Z M 3.966803073883057 3.545528411865234 C 2.868163108825684 3.545528411865234 1.977413177490234 2.751798391342163 1.977413177490234 1.77271831035614 C 1.977413177490234 0.7937282919883728 2.868163108825684 -1.685485813140986e-06 3.966803073883057 -1.685485813140986e-06 C 5.065543174743652 -1.685485813140986e-06 5.956283092498779 0.7937282919883728 5.956283092498779 1.77271831035614 C 5.956283092498779 2.751798391342163 5.065543174743652 3.545528411865234 3.966803073883057 3.545528411865234 Z" stroke="none" fill="red"/>
      </g>
    </g>
    <g id="Component_1_5" data-name="Component 1 – 5" transform="translate(62 54.5)">
      <g id="Union_17-5" data-name="Union 17" transform="translate(0)" fill="red">
        <path d="M 4.433068752288818 12.32388019561768 C 3.699008941650391 12.32388019561768 2.646628856658936 12.25980091094971 1.801679015159607 11.95449066162109 C 0.519288957118988 11.4911003112793 0.5053489804267883 10.74009037017822 0.500758945941925 10.49330043792725 C 0.4787989556789398 9.310151100158691 0.9337689876556396 8.174850463867188 1.78187894821167 7.2965407371521 C 2.716208934783936 6.328930854797363 3.998128890991211 5.783450603485107 5.391489028930664 5.760560512542725 C 5.421248912811279 5.76007080078125 5.451179027557373 5.759830474853516 5.480828762054443 5.759830474853516 C 6.797908782958984 5.759830474853516 8.039958953857422 6.236870765686035 8.978178977966309 7.103080749511719 C 9.909178733825684 7.962620735168457 10.43440914154053 9.109320640563965 10.45711898803711 10.33193111419678 C 10.46419906616211 10.71458053588867 10.340989112854 11.02963066101074 10.08042907714844 11.29507064819336 C 9.19434928894043 12.19773101806641 7.055678844451904 12.29522037506104 6.177309036254883 12.29524040222168 C 5.803218841552734 12.29525089263916 5.560489177703857 12.27849102020264 5.558088779449463 12.2783203125 L 5.514538764953613 12.27526092529297 L 5.470869064331055 12.27977085113525 C 5.466848850250244 12.28018093109131 5.037018775939941 12.32387065887451 4.433058738708496 12.32388019561768 L 4.433068752288818 12.32388019561768 Z M 5.462318897247314 4.652780532836914 C 4.227509021759033 4.652780532836914 3.22291898727417 3.721280574798584 3.22291898727417 2.576320648193359 C 3.22291898727417 1.431430697441101 4.227509021759033 0.5000006556510925 5.462318897247314 0.5000006556510925 C 6.697198867797852 0.5000006556510925 7.701848983764648 1.431430697441101 7.701848983764648 2.576320648193359 C 7.701848983764648 3.721280574798584 6.697198867797852 4.652780532836914 5.462318897247314 4.652780532836914 Z" stroke="none"/>
        <path d="M 4.433058738708496 11.82388019561768 L 4.433048725128174 11.82388019561768 C 5.007399082183838 11.82387065887451 5.415938854217529 11.78278064727783 5.418979167938232 11.782470703125 L 5.50632905960083 11.77354049682617 L 5.592888832092285 11.77953052520752 C 5.59515905380249 11.77969074249268 5.823968887329102 11.79525089263916 6.177299022674561 11.79524040222168 C 7.849848747253418 11.79521083831787 9.208708763122559 11.46934032440186 9.72360897064209 10.94481086730957 C 9.891999244689941 10.77326107025146 9.961858749389648 10.59274101257324 9.957199096679688 10.34122085571289 C 9.93704891204834 9.256180763244629 9.46890926361084 8.236650466918945 8.639008522033691 7.470460414886475 C 7.793418884277344 6.689770698547363 6.671828746795654 6.259830474853516 5.480828762054443 6.259830474853516 C 5.453868865966797 6.259830474853516 5.42664909362793 6.260060787200928 5.399698734283447 6.260500431060791 C 4.140079021453857 6.281180858612061 2.98297905921936 6.772470474243164 2.141568899154663 7.643850803375244 C 1.386368989944458 8.42595100402832 0.981188952922821 9.434600830078125 1.000679016113281 10.48401069641113 C 1.004308938980103 10.67965030670166 1.012818932533264 11.1378002166748 1.971598982810974 11.48424053192139 C 2.748478889465332 11.76496028900146 3.738959074020386 11.82388019561768 4.433058738708496 11.82388019561768 M 5.462318897247314 4.152780532836914 C 6.421498775482178 4.152780532836914 7.201848983764648 3.445580720901489 7.201848983764648 2.576320648193359 C 7.201848983764648 1.707130670547485 6.421498775482178 1.000000596046448 5.462318897247314 1.000000596046448 C 4.503209114074707 1.000000596046448 3.72291898727417 1.707130670547485 3.72291898727417 2.576320648193359 C 3.72291898727417 3.445580720901489 4.503209114074707 4.152780532836914 5.462318897247314 4.152780532836914 M 4.433068752288818 12.82388019561768 C 2.834828853607178 12.82389068603516 0.0385589599609375 12.53323078155518 0.0008489613537676632 10.5025806427002 C -0.05198103934526443 7.657150745391846 2.357878923416138 5.310320854187012 5.383278846740723 5.26063060760498 C 5.415778160095215 5.260097026824951 5.4484543800354 5.259829044342041 5.480828762054443 5.259829044342041 C 8.462239265441895 5.259829044342041 10.90475654602051 7.507915496826172 10.95702934265137 10.32265090942383 C 10.99835681915283 12.55449962615967 7.631258010864258 12.79521083831787 6.177320003509521 12.79524326324463 C 5.777603149414062 12.79525279998779 5.522758960723877 12.77707099914551 5.522758960723877 12.77707099914551 C 5.522758960723877 12.77707099914551 5.074248790740967 12.82387065887451 4.433068752288818 12.82388019561768 Z M 5.462318897247314 5.152780532836914 C 3.9494788646698 5.152780532836914 2.72291898727417 3.999240636825562 2.72291898727417 2.576320648193359 C 2.72291898727417 1.15354061126709 3.9494788646698 6.417846520889725e-07 5.462318897247314 6.417846520889725e-07 C 6.975288867950439 6.417846520889725e-07 8.201848983764648 1.15354061126709 8.201848983764648 2.576320648193359 C 8.201848983764648 3.999240636825562 6.975288867950439 5.152780532836914 5.462318897247314 5.152780532836914 Z" stroke="none" fill="red"/>
      </g>
    </g>
    <g id="Component_1_6" data-name="Component 1 – 6" transform="translate(258 46.5)">
      <g id="Union_17-6" data-name="Union 17" transform="translate(0)" fill="#ff7f00">
        <path d="M 5.242199420928955 15.32387161254883 C 4.368519306182861 15.32388210296631 3.115209579467773 15.24403190612793 2.10599946975708 14.86350154876709 C 1.041719436645508 14.46221160888672 0.516699492931366 13.83651161193848 0.5009294748306274 12.95064163208008 C 0.4731194674968719 11.3879222869873 1.067579507827759 9.907631874084473 2.174789428710938 8.782451629638672 C 3.284479379653931 7.654761791229248 4.775939464569092 7.018621921539307 6.374429702758789 6.991231918334961 C 6.409999370574951 6.990622043609619 6.445789337158203 6.990312099456787 6.481229305267334 6.990312099456787 C 8.057759284973145 6.990312099456787 9.545759201049805 7.587381839752197 10.67111968994141 8.671542167663574 C 11.7952995300293 9.754562377929688 12.42954921722412 11.20171165466309 12.45703983306885 12.74641227722168 C 12.46634960174561 13.27105236053467 12.29963970184326 13.70041179656982 11.94737911224365 14.05899238586426 C 10.85724925994873 15.16866207122803 8.337539672851562 15.2885217666626 7.304819583892822 15.28854179382324 C 6.85953950881958 15.28855228424072 6.570549488067627 15.26769161224365 6.567689418792725 15.26748180389404 L 6.522229671478271 15.26414203643799 L 6.476689338684082 15.26906204223633 C 6.471839427947998 15.26958179473877 5.960559368133545 15.32386207580566 5.242199420928955 15.32387161254883 Z M 6.459319591522217 5.858211994171143 C 4.948809623718262 5.858211994171143 3.719919443130493 4.656332015991211 3.719919443130493 3.179021835327148 C 3.719919443130493 1.701801896095276 4.948809623718262 0.5000019073486328 6.459319591522217 0.5000019073486328 C 7.969929695129395 0.5000019073486328 9.198899269104004 1.701801896095276 9.198899269104004 3.179021835327148 C 9.198899269104004 4.656332015991211 7.969929695129395 5.858211994171143 6.459319591522217 5.858211994171143 Z" stroke="none"/>
        <path d="M 5.242199420928955 14.82387161254883 C 5.929619312286377 14.82386207580566 6.418649673461914 14.77241230010986 6.422569274902344 14.77199172973633 L 6.513679504394531 14.76225185394287 L 6.604109287261963 14.76881217956543 C 6.606829643249512 14.76901149749756 6.881239414215088 14.78856182098389 7.3048095703125 14.78854179382324 C 9.324219703674316 14.78849220275879 10.92641925811768 14.38477230072021 11.59069919586182 13.70859146118164 C 11.84758949279785 13.44710159301758 11.96401977539062 13.14417171478271 11.95711994171143 12.7553014755249 C 11.93200969696045 11.3443021774292 11.35209941864014 10.02187156677246 10.32421970367432 9.031621932983398 C 9.292509078979492 8.037692070007324 7.927709579467773 7.490312099456787 6.481229305267334 7.490312099456787 C 6.448649406433105 7.490312099456787 6.4157395362854 7.490592002868652 6.382989406585693 7.491151809692383 C 4.916329383850098 7.516292095184326 3.548399448394775 8.099431991577148 2.531179428100586 9.133152008056641 C 1.518929481506348 10.16182231903076 0.9754495024681091 11.51441192626953 1.000849485397339 12.94175148010254 C 1.008949518203735 13.39674186706543 1.161929488182068 13.97317218780518 2.282409429550171 14.39565181732178 C 3.221129417419434 14.74960231781006 4.410079479217529 14.82388210296631 5.242189407348633 14.82387161254883 L 5.242199420928955 14.82387161254883 M 6.459319591522217 5.358211994171143 C 7.694229602813721 5.358211994171143 8.698899269104004 4.380631923675537 8.698899269104004 3.179021835327148 C 8.698899269104004 1.97750186920166 7.694229602813721 1.000001907348633 6.459319591522217 1.000001907348633 C 5.224509716033936 1.000001907348633 4.219919681549072 1.97750186920166 4.219919681549072 3.179021835327148 C 4.219919681549072 4.380631923675537 5.224509716033936 5.358211994171143 6.459319591522217 5.358211994171143 M 5.242209434509277 15.82387161254883 C 3.352259397506714 15.82390213012695 0.04559947922825813 15.46523189544678 0.001009478932246566 12.9595422744751 C -0.06147051975131035 9.448461532592773 2.788259506225586 6.552611827850342 6.365859508514404 6.491302013397217 C 6.404290676116943 6.490643501281738 6.442945957183838 6.490312576293945 6.481229782104492 6.490312576293945 C 10.00683307647705 6.490312576293945 12.89515018463135 9.264307022094727 12.95695972442627 12.73751163482666 C 13.00583267211914 15.49147987365723 9.02414608001709 15.7885046005249 7.30482816696167 15.78854560852051 C 6.832152843475342 15.7885570526123 6.530799388885498 15.76612186431885 6.530799388885498 15.76612186431885 C 6.530799388885498 15.76612186431885 6.000429630279541 15.82386207580566 5.242209434509277 15.82387161254883 Z M 6.459319591522217 6.358211994171143 C 4.67035961151123 6.358211994171143 3.219919443130493 4.934812068939209 3.219919443130493 3.179021835327148 C 3.219919443130493 1.423401951789856 4.67035961151123 1.910400442284299e-06 6.459319591522217 1.910400442284299e-06 C 8.248459815979004 1.910400442284299e-06 9.698899269104004 1.423401951789856 9.698899269104004 3.179021835327148 C 9.698899269104004 4.934812068939209 8.248459815979004 6.358211994171143 6.459319591522217 6.358211994171143 Z" stroke="none" fill="#ff7f00"/>
      </g>
    </g>
    <g id="Component_1_7" data-name="Component 1 – 7" transform="translate(23 21.5)">
      <g id="Union_17-7" data-name="Union 17" transform="translate(0)" fill="#0bda51">
        <path d="M 3.219353199005127 8.323878288269043 C 2.695233106613159 8.323878288269043 1.944933176040649 8.280918121337891 1.346963167190552 8.076188087463379 C 0.5117631554603577 7.790238380432129 0.5036031603813171 7.373668193817139 0.5005232095718384 7.216838359832764 C 0.4860831797122955 6.479918479919434 0.7776032090187073 5.763888359069824 1.321373224258423 5.200658321380615 C 1.969563126564026 4.529268264770508 2.915703296661377 4.135268211364746 3.91718316078186 4.119688510894775 C 3.938193082809448 4.119358539581299 3.959333181381226 4.119198322296143 3.980253219604492 4.119198322296143 C 5.865113258361816 4.119198322296143 7.424883365631104 5.462048530578613 7.45723295211792 7.11262845993042 C 7.461303234100342 7.321198463439941 7.395743370056152 7.487148284912109 7.250893115997314 7.634858131408691 C 6.839933395385742 8.053937911987305 5.806343078613281 8.30414867401123 4.486042976379395 8.304168701171875 C 4.218993186950684 8.304178237915039 4.045813083648682 8.292898178100586 4.044093132019043 8.292788505554199 L 4.002902984619141 8.290058135986328 L 3.961503267288208 8.294097900390625 C 3.958763122558594 8.294358253479004 3.651353120803833 8.323868751525879 3.219343185424805 8.323878288269043 L 3.219353199005127 8.323878288269043 Z M 3.966803073883057 3.045528411865234 C 3.145553112030029 3.045528411865234 2.477413177490234 2.47454833984375 2.477413177490234 1.77271831035614 C 2.477413177490234 1.070938348770142 3.145553112030029 0.4999983012676239 3.966803073883057 0.4999983012676239 C 4.788103103637695 0.4999983012676239 5.456283092498779 1.070938348770142 5.456283092498779 1.77271831035614 C 5.456283092498779 2.47454833984375 4.788103103637695 3.045528411865234 3.966803073883057 3.045528411865234 Z" stroke="none"/>
        <path d="M 3.219343185424805 7.823878288269043 L 3.219333171844482 7.823878288269043 C 3.6234130859375 7.823868274688721 3.910733222961426 7.796668529510498 3.912313222885132 7.796518325805664 L 3.9951331615448 7.788548469543457 L 4.07684326171875 7.793858528137207 C 4.078433036804199 7.793958187103271 4.238523006439209 7.804178237915039 4.486032962799072 7.804168224334717 C 5.797553062438965 7.804148197174072 6.640393257141113 7.543288230895996 6.893893241882324 7.284778118133545 C 6.945163249969482 7.232508182525635 6.958793163299561 7.197588443756104 6.95732307434082 7.122428417205811 C 6.930273056030273 5.742138385772705 5.594763278961182 4.619198322296143 3.980253219604492 4.619198322296143 C 3.96194314956665 4.619198322296143 3.943453073501587 4.619338512420654 3.924963235855103 4.619628429412842 C 3.055453300476074 4.633158206939697 2.237593173980713 4.971518516540527 1.681083202362061 5.547938346862793 C 1.230343222618103 6.01481819152832 0.9886131882667542 6.604028224945068 1.000433206558228 7.207048416137695 C 1.001633167266846 7.268178462982178 1.004813194274902 7.430548191070557 1.508923172950745 7.603148460388184 C 1.92469322681427 7.745488166809082 2.532133102416992 7.823888301849365 3.219343185424805 7.823878288269043 M 3.966803073883057 2.545528411865234 C 4.503153324127197 2.545528411865234 4.956283092498779 2.191628217697144 4.956283092498779 1.77271831035614 C 4.956283092498779 1.353858351707458 4.503153324127197 0.9999983310699463 3.966803073883057 0.9999983310699463 C 3.430503129959106 0.9999983310699463 2.977413177490234 1.353858351707458 2.977413177490234 1.77271831035614 C 2.977413177490234 2.191628217697144 3.430503129959106 2.545528411865234 3.966803073883057 2.545528411865234 M 3.219353199005127 8.823878288269043 C 2.058693170547485 8.823888778686523 0.02800318412482738 8.62388801574707 0.0006231849547475576 7.226638317108154 C -0.03774681687355042 5.26874828338623 1.712323188781738 3.653938293457031 3.909403085708618 3.61974835395813 C 3.93300461769104 3.619380950927734 3.956746816635132 3.619196653366089 3.980257749557495 3.619196653366089 C 6.14539909362793 3.619196653366089 7.919175148010254 5.166059494018555 7.957133293151855 7.102828502655029 C 7.987143039703369 8.638524055480957 5.541919708251953 8.80415153503418 4.486051559448242 8.804173469543457 C 4.19577169418335 8.804179191589355 4.010693073272705 8.791667938232422 4.010693073272705 8.791667938232422 C 4.010693073272705 8.791667938232422 3.684983253479004 8.823868751525879 3.219353199005127 8.823878288269043 Z M 3.966803073883057 3.545528411865234 C 2.868163108825684 3.545528411865234 1.977413177490234 2.751798391342163 1.977413177490234 1.77271831035614 C 1.977413177490234 0.7937282919883728 2.868163108825684 -1.685485813140986e-06 3.966803073883057 -1.685485813140986e-06 C 5.065543174743652 -1.685485813140986e-06 5.956283092498779 0.7937282919883728 5.956283092498779 1.77271831035614 C 5.956283092498779 2.751798391342163 5.065543174743652 3.545528411865234 3.966803073883057 3.545528411865234 Z" stroke="none" fill="#0bda51"/>
      </g>
    </g>
    <g id="Component_1_8" data-name="Component 1 – 8" transform="translate(169 164.5)">
      <g id="Union_17-8" data-name="Union 17" transform="translate(0)" fill="#0bda51">
        <path d="M 4.433068752288818 11.32387924194336 C 3.696069002151489 11.32387924194336 2.63922905921936 11.26448917388916 1.789798974990845 10.98148918151855 C 0.5185589790344238 10.55795001983643 0.5051489472389221 9.892279624938965 0.5007489323616028 9.673529624938965 C 0.4804189503192902 8.664219856262207 0.8835289478302002 7.679199695587158 1.635798931121826 6.899909496307373 C 2.565129041671753 5.937209606170654 3.933789014816284 5.372419357299805 5.390849113464355 5.350349426269531 C 5.420828819274902 5.349899768829346 5.450978755950928 5.349669456481934 5.480838775634766 5.349669456481934 C 6.805348873138428 5.349669456481934 8.052748680114746 5.790589809417725 8.993259429931641 6.591199398040771 C 9.914909362792969 7.375759601593018 10.43478870391846 8.418649673461914 10.45712852478027 9.527770042419434 C 10.46353912353516 9.846819877624512 10.36206912994385 10.10200977325439 10.13778877258301 10.33083915710449 C 9.535749435424805 10.94510936737061 8.092208862304688 11.29743957519531 6.177309036254883 11.2974796295166 C 5.801599025726318 11.2974796295166 5.557778835296631 11.28193950653076 5.55535888671875 11.28177928924561 L 5.51517915725708 11.27917957305908 L 5.474878787994385 11.28302001953125 C 5.470808982849121 11.28340911865234 5.039319038391113 11.3238697052002 4.433058738708496 11.32387924194336 L 4.433068752288818 11.32387924194336 Z M 5.462318897247314 4.250969409942627 C 4.227509021759033 4.250969409942627 3.22291898727417 3.409599542617798 3.22291898727417 2.375419616699219 C 3.22291898727417 1.341309547424316 4.227509021759033 0.4999995827674866 5.462318897247314 0.4999995827674866 C 6.697198867797852 0.4999995827674866 7.701848983764648 1.341309547424316 7.701848983764648 2.375419616699219 C 7.701848983764648 3.409599542617798 6.697198867797852 4.250969409942627 5.462318897247314 4.250969409942627 Z" stroke="none"/>
        <path d="M 4.433058738708496 10.82387924194336 L 4.433048725128174 10.82387924194336 C 5.011959075927734 10.8238697052002 5.423768997192383 10.78561973571777 5.426989078521729 10.78531932830811 L 5.507598876953125 10.7777099609375 L 5.587509155273438 10.7828197479248 C 5.589798927307129 10.78296947479248 5.820778846740723 10.7974796295166 6.177299022674561 10.7974796295166 C 7.906309127807617 10.79743957519531 9.28705883026123 10.48452949523926 9.780698776245117 9.980859756469727 C 9.909758567810059 9.849179267883301 9.960908889770508 9.720809936523438 9.957228660583496 9.537839889526367 C 9.916269302368164 7.504169464111328 7.908168792724609 5.849669456481934 5.480838775634766 5.849669456481934 C 5.453458786010742 5.849669456481934 5.42582893371582 5.849879741668701 5.39841890335083 5.85029935836792 C 4.073429107666016 5.870359420776367 2.833128929138184 6.379499435424805 1.995528936386108 7.247169494628906 C 1.336349010467529 7.930029392242432 0.9830189347267151 8.788159370422363 1.000648975372314 9.663459777832031 C 1.003848910331726 9.822549819946289 1.011358976364136 10.19511985778809 1.947848916053772 10.50711917877197 C 2.733679056167603 10.76892948150635 3.733058929443359 10.82387924194336 4.433058738708496 10.82387924194336 M 5.462318897247314 3.750969648361206 C 6.421498775482178 3.750969648361206 7.201848983764648 3.133899688720703 7.201848983764648 2.375419616699219 C 7.201848983764648 1.61700963973999 6.421498775482178 0.9999995827674866 5.462318897247314 0.9999995827674866 C 4.503209114074707 0.9999995827674866 3.72291898727417 1.61700963973999 3.72291898727417 2.375419616699219 C 3.72291898727417 3.133899688720703 4.503209114074707 3.750969648361206 5.462318897247314 3.750969648361206 M 4.433068752288818 11.82387924194336 C 2.834828853607178 11.82388973236084 0.0385589599609375 11.55588912963867 0.0008489613537676632 9.683599472045898 C -0.05198103934526443 7.060049533843994 2.357878923416138 4.896219730377197 5.383278846740723 4.850409507751465 C 5.415778160095215 4.849917411804199 5.44846248626709 4.84967041015625 5.480837345123291 4.84967041015625 C 8.462247848510742 4.84967041015625 10.90475654602051 6.922451019287109 10.95702934265137 9.517699241638184 C 10.99835681915283 11.57550716400146 7.631261348724365 11.79744529724121 6.177323818206787 11.79747581481934 C 5.777606964111328 11.79748344421387 5.522758960723877 11.78071975708008 5.522758960723877 11.78071975708008 C 5.522758960723877 11.78071975708008 5.074248790740967 11.8238697052002 4.433068752288818 11.82387924194336 Z M 5.462318897247314 4.750969409942627 C 3.9494788646698 4.750969409942627 2.72291898727417 3.687379598617554 2.72291898727417 2.375419616699219 C 2.72291898727417 1.063589572906494 3.9494788646698 -4.168701082107873e-07 5.462318897247314 -4.168701082107873e-07 C 6.975288867950439 -4.168701082107873e-07 8.201848983764648 1.063589572906494 8.201848983764648 2.375419616699219 C 8.201848983764648 3.687379598617554 6.975288867950439 4.750969409942627 5.462318897247314 4.750969409942627 Z" stroke="none" fill="#0bda51"/>
      </g>
    </g>
    <g id="Component_1_9" data-name="Component 1 – 9" transform="translate(189 234.5)">
      <g id="Union_17-9" data-name="Union 17" transform="translate(0)" fill="#daa520">
        <path d="M 4.837644100189209 12.32388019561768 C 4.029784202575684 12.32388019561768 2.870924234390259 12.25904083251953 1.937844276428223 11.95007038116455 C 0.5208542346954346 11.48087024688721 0.5057842135429382 10.73692035675049 0.5008342266082764 10.49245071411133 C 0.4785342216491699 9.392210960388184 0.9188042283058167 8.317470550537109 1.740544199943542 7.466190814971924 C 2.763494253158569 6.406460762023926 4.27303409576416 5.784790515899658 5.882084369659424 5.760570526123047 C 5.91504430770874 5.760080814361572 5.948184013366699 5.759830474853516 5.981014251708984 5.759830474853516 C 7.437784194946289 5.759830474853516 8.809954643249512 6.241970539093018 9.844734191894531 7.117430686950684 C 10.85986423492432 7.976260662078857 11.43248462677002 9.118160247802734 11.45709419250488 10.3327808380127 C 11.46419429779053 10.68385028839111 11.34741401672363 10.97720050811768 11.10009384155273 11.22958087921143 C 10.4364538192749 11.90678024291992 8.847643852233887 12.29520034790039 6.741064071655273 12.29524040222168 C 6.329184055328369 12.29525089263916 6.061854362487793 12.27829074859619 6.059194087982178 12.27812099456787 L 6.019234180450439 12.27554035186768 L 5.979184150695801 12.27934074401855 C 5.974674224853516 12.27977085113525 5.501893997192383 12.32387065887451 4.837634086608887 12.32388019561768 L 4.837644100189209 12.32388019561768 Z M 5.960813999176025 4.652780532836914 C 4.588164329528809 4.652780532836914 3.471424102783203 3.721280574798584 3.471424102783203 2.576320648193359 C 3.471424102783203 1.431430697441101 4.588164329528809 0.5000006556510925 5.960813999176025 0.5000006556510925 C 7.333564281463623 0.5000006556510925 8.450374603271484 1.431430697441101 8.450374603271484 2.576320648193359 C 8.450374603271484 3.721280574798584 7.333564281463623 4.652780532836914 5.960813999176025 4.652780532836914 Z" stroke="none"/>
        <path d="M 4.837634086608887 11.82388019561768 C 5.474664211273193 11.82387065887451 5.927874088287354 11.78196048736572 5.931584358215332 11.7816104888916 L 6.011704444885254 11.77408027648926 L 6.091214179992676 11.77915096282959 C 6.093744277954102 11.77931022644043 6.348264217376709 11.79525089263916 6.741054058074951 11.79524040222168 C 8.65610408782959 11.79520034790039 10.18954467773438 11.44436073303223 10.7429838180542 10.87962055206299 C 10.89754390716553 10.72189044952393 10.96161460876465 10.56136035919189 10.95720386505127 10.34291076660156 C 10.9115743637085 8.091490745544434 8.679264068603516 6.259830474853516 5.981014251708984 6.259830474853516 C 5.950644016265869 6.259830474853516 5.919994354248047 6.260060787200928 5.889614105224609 6.260520458221436 C 4.412644386291504 6.282750606536865 3.031484127044678 6.848770618438721 2.100284337997437 7.813450813293457 C 1.371644258499146 8.568280220031738 0.981154203414917 9.516100883483887 1.000724196434021 10.48232078552246 C 1.004244208335876 10.65600109100342 1.013594269752502 11.11733055114746 2.095014333724976 11.47542095184326 C 2.964834213256836 11.76343059539795 4.066564083099365 11.82388019561768 4.837634086608887 11.82388019561768 M 5.960813999176025 4.152780532836914 C 7.057864189147949 4.152780532836914 7.950374126434326 3.445580720901489 7.950374126434326 2.576320648193359 C 7.950374126434326 1.707130670547485 7.057864189147949 1.000000596046448 5.960813999176025 1.000000596046448 C 4.863864421844482 1.000000596046448 3.971424102783203 1.707130670547485 3.971424102783203 2.576320648193359 C 3.971424102783203 3.445580720901489 4.863864421844482 4.152780532836914 5.960813999176025 4.152780532836914 M 4.837644100189209 12.82388019561768 C 3.093544244766235 12.82389068603516 0.04207421839237213 12.53323078155518 0.0009342201519757509 10.5025806427002 C -0.05672578141093254 7.657150745391846 2.57306432723999 5.310320854187012 5.874564170837402 5.26063060760498 C 5.910029411315918 5.260097026824951 5.945687770843506 5.259829044342041 5.981017112731934 5.259829044342041 C 9.234523773193359 5.259829044342041 11.89995384216309 7.507915496826172 11.95699405670166 10.32265090942383 C 12.00209522247314 12.55449962615967 8.327702522277832 12.79521083831787 6.741073131561279 12.79524326324463 C 6.304876327514648 12.79525279998779 6.026774406433105 12.77707099914551 6.026774406433105 12.77707099914551 C 6.026774406433105 12.77707099914551 5.537334442138672 12.82387065887451 4.837644100189209 12.82388019561768 Z M 5.960813999176025 5.152780532836914 C 4.309914112091064 5.152780532836914 2.971424102783203 3.999240636825562 2.971424102783203 2.576320648193359 C 2.971424102783203 1.15354061126709 4.309914112091064 6.417846520889725e-07 5.960813999176025 6.417846520889725e-07 C 7.611874103546143 6.417846520889725e-07 8.950374603271484 1.15354061126709 8.950374603271484 2.576320648193359 C 8.950374603271484 3.999240636825562 7.611874103546143 5.152780532836914 5.960813999176025 5.152780532836914 Z" stroke="none" fill="#daa520"/>
      </g>
    </g>
    <g id="Component_1_10" data-name="Component 1 – 10" transform="translate(176 36.5)">
      <g id="Union_17-10" data-name="Union 17" transform="translate(0)" fill="#0bda51">
        <path d="M 3.641157388687134 8.999995231628418 L 3.641147375106812 8.999995231628418 C 3.041657447814941 9.000004768371582 2.182717323303223 8.952984809875488 1.495197296142578 8.728915214538574 C 0.5137473344802856 8.409065246582031 0.5038473010063171 7.928124904632568 0.5005873441696167 7.770084857940674 C 0.4847573339939117 7.000764846801758 0.7958173155784607 6.245774745941162 1.376467347145081 5.644204616546631 C 2.12443733215332 4.869274616241455 3.237057447433472 4.4147047996521 4.429027557373047 4.397054672241211 C 4.453247547149658 4.396694660186768 4.477617263793945 4.396514892578125 4.501757144927979 4.396514892578125 C 6.669267177581787 4.396514892578125 8.462777137756348 5.859324932098389 8.499796867370605 7.657364845275879 C 8.50435733795166 7.879674911499023 8.432947158813477 8.058295249938965 8.275047302246094 8.219465255737305 C 7.809287548065186 8.694894790649414 6.612557411193848 8.978754997253418 5.073797225952148 8.978784561157227 C 4.768237113952637 8.978795051574707 4.57000732421875 8.966464996337891 4.568037509918213 8.966344833374023 L 4.528767108917236 8.963854789733887 L 4.48933744430542 8.967524528503418 C 4.48609733581543 8.967824935913086 4.134797096252441 8.999995231628418 3.641157388687134 8.999995231628418 Z M 4.486537456512451 3.317204713821411 C 3.521567344665527 3.317204713821411 2.736507415771484 2.685284852981567 2.736507415771484 1.908554792404175 C 2.736507415771484 1.131874799728394 3.521567344665527 0.5000048279762268 4.486537456512451 0.5000048279762268 C 5.451577186584473 0.5000048279762268 6.236697196960449 1.131874799728394 6.236697196960449 1.908554792404175 C 6.236697196960449 2.685284852981567 5.451577186584473 3.317204713821411 4.486537456512451 3.317204713821411 Z" stroke="none"/>
        <path d="M 3.641157388687134 8.499995231628418 C 4.108107566833496 8.499995231628418 4.440207481384277 8.469934463500977 4.442487239837646 8.469724655151367 L 4.52136754989624 8.462465286254883 L 4.599377155303955 8.467325210571289 C 4.601227283477783 8.467434883117676 4.786917209625244 8.478795051574707 5.073797225952148 8.478784561157227 C 6.732537269592285 8.478754997253418 7.642577171325684 8.150585174560547 7.917877197265625 7.869565010070801 C 7.981767177581787 7.804354667663574 8.001697540283203 7.755274772644043 7.999897480010986 7.667654991149902 C 7.968447208404541 6.139644622802734 6.399187564849854 4.896514892578125 4.501757144927979 4.896514892578125 C 4.480137348175049 4.896514892578125 4.458297252655029 4.896664619445801 4.436427116394043 4.896994590759277 C 3.37659740447998 4.912694931030273 2.392407417297363 5.311604976654053 1.736217379570007 5.99144458770752 C 1.391327381134033 6.348764896392822 0.9837273359298706 6.945604801177979 1.000487327575684 7.75979471206665 C 1.0023273229599 7.849114894866943 1.024637341499329 7.898744583129883 1.092307329177856 7.964035034179688 C 1.155257344245911 8.024774551391602 1.311447381973267 8.143144607543945 1.650127291679382 8.253524780273438 C 2.144917249679565 8.41478443145752 2.833397388458252 8.500004768371582 3.641137361526489 8.499995231628418 L 3.641157388687134 8.499995231628418 M 4.486537456512451 2.817204713821411 C 5.164197444915771 2.817204713821411 5.736697196960449 2.401094913482666 5.736697196960449 1.908554792404175 C 5.736697196960449 1.416064858436584 5.164197444915771 1.000004768371582 4.486537456512451 1.000004768371582 C 3.808947324752808 1.000004768371582 3.236507415771484 1.416064858436584 3.236507415771484 1.908554792404175 C 3.236507415771484 2.401094913482666 3.808947324752808 2.817204713821411 4.486537456512451 2.817204713821411 M 3.641157388687134 9.499995231628418 C 2.328427314758301 9.500015258789062 0.03166732937097549 9.284685134887695 0.0006973291165195405 7.780375003814697 C -0.04269267246127129 5.672464847564697 1.93667733669281 3.93391489982605 4.42161750793457 3.897104740142822 C 4.448311328887939 3.896709442138672 4.475164413452148 3.89651083946228 4.501755714416504 3.89651083946228 C 6.950582504272461 3.89651083946228 8.95676326751709 5.561907291412354 8.999687194824219 7.647074699401855 C 9.033634185791016 9.300440788269043 6.268021583557129 9.478762626647949 5.073812484741211 9.478787422180176 C 4.745500564575195 9.478794097900391 4.536187171936035 9.465324401855469 4.536187171936035 9.465324401855469 C 4.536187171936035 9.465324401855469 4.167797565460205 9.499995231628418 3.641157388687134 9.499995231628418 Z M 4.486537456512451 3.817204713821411 C 3.243947267532349 3.817204713821411 2.236507415771484 2.962654829025269 2.236507415771484 1.908554792404175 C 2.236507415771484 0.8545548319816589 3.243947267532349 4.81201186630642e-06 4.486537456512451 4.81201186630642e-06 C 5.729247093200684 4.81201186630642e-06 6.736697196960449 0.8545548319816589 6.736697196960449 1.908554792404175 C 6.736697196960449 2.962654829025269 5.729247093200684 3.817204713821411 4.486537456512451 3.817204713821411 Z" stroke="none" fill="#0bda51"/>
      </g>
    </g>
    <g id="Component_1_11" data-name="Component 1 – 11" transform="translate(233 111.5)">
      <g id="Union_17-11" data-name="Union 17" fill="#4d4dff">
        <path d="M 6.860490798950195 18.32387351989746 C 5.700691223144531 18.32388305664062 4.035221099853516 18.22693252563477 2.687381029129028 17.76498413085938 C 1.237661004066467 17.26812362670898 0.5225610136985779 16.49672317504883 0.5012210011482239 15.40671348571777 C 0.4674509763717651 13.6814136505127 1.146031022071838 12.00912284851074 2.411971092224121 10.69788360595703 C 3.896811008453369 9.159913063049316 6.057071208953857 8.257452964782715 8.338821411132812 8.221902847290039 C 8.386521339416504 8.221162796020508 8.434491157531738 8.220783233642578 8.482010841369629 8.220783233642578 C 10.59418106079102 8.220783233642578 12.58578109741211 8.946183204650879 14.08992099761963 10.26336288452148 C 15.58000087738037 11.56822299957275 16.42062187194824 13.30799293518066 16.4569206237793 15.1621732711792 C 16.46862030029297 15.76169300079346 16.27154159545898 16.25991249084473 15.85443115234375 16.68525314331055 C 14.44139099121094 18.12618255615234 10.98171138763428 18.28181266784668 9.559841156005859 18.2818431854248 C 8.968360900878906 18.28186225891113 8.584300994873047 18.25656318664551 8.580491065979004 18.25630378723145 L 8.539091110229492 18.2535228729248 L 8.497640609741211 18.25760269165039 C 8.491050720214844 18.25825309753418 7.813011169433594 18.3238639831543 6.860490798950195 18.32387351989746 Z M 8.453340530395508 7.063642978668213 C 6.391420841217041 7.063642978668213 4.713921070098877 5.59138298034668 4.713921070098877 3.781723260879517 C 4.713921070098877 1.97217321395874 6.391420841217041 0.5000031590461731 8.453340530395508 0.5000031590461731 C 10.515380859375 0.5000031590461731 12.19298076629639 1.97217321395874 12.19298076629639 3.781723260879517 C 12.19298076629639 5.59138298034668 10.515380859375 7.063642978668213 8.453340530395508 7.063642978668213 Z" stroke="none"/>
        <path d="M 6.860490798950195 17.82387351989746 C 7.784750938415527 17.8238639831543 8.442450523376465 17.76061248779297 8.44840145111084 17.76003265380859 L 8.531291007995605 17.75193405151367 L 8.613810539245605 17.75741386413574 C 8.617481231689453 17.75766372680664 8.988210678100586 17.78186225891113 9.559830665588379 17.7818431854248 C 12.38949108123779 17.78179359436035 14.60916137695312 17.2409839630127 15.4974308013916 16.33518409729004 C 15.8200511932373 16.00620269775391 15.96608066558838 15.63656330108643 15.95701122283936 15.17195320129395 C 15.92350101470947 13.4601936340332 15.14344120025635 11.85054302215576 13.76052093505859 10.63952350616455 C 12.34757137298584 9.402203559875488 10.47296142578125 8.720783233642578 8.482010841369629 8.720783233642578 C 8.437061309814453 8.720783233642578 8.391671180725098 8.721142768859863 8.346611022949219 8.721842765808105 C 6.196831226348877 8.755332946777344 4.164851188659668 9.602152824401855 2.771681070327759 11.04517364501953 C 1.598770976066589 12.26005363464355 0.9699810147285461 13.80553340911865 1.001130938529968 15.39693355560303 C 1.01180100440979 15.94216346740723 1.215021014213562 16.73180389404297 2.849490880966187 17.29199409484863 C 4.132201194763184 17.73162269592285 5.738680839538574 17.82388305664062 6.860490798950195 17.82387351989746 M 8.453340530395508 6.563642978668213 C 10.23968124389648 6.563642978668213 11.69298076629639 5.315683364868164 11.69298076629639 3.781723260879517 C 11.69298076629639 2.247873067855835 10.23968124389648 1.000003218650818 8.453340530395508 1.000003218650818 C 6.667120933532715 1.000003218650818 5.213921070098877 2.247873067855835 5.213921070098877 3.781723260879517 C 5.213921070098877 5.315683364868164 6.667120933532715 6.563642978668213 8.453340530395508 6.563642978668213 M 6.860500812530518 18.82387351989746 C 4.387111186981201 18.82390403747559 0.05967099219560623 18.39724349975586 0.00132099085021764 15.41650295257568 C -0.0804390087723732 11.2397632598877 3.649000883102417 7.79490327835083 8.33103084564209 7.721963405609131 C 8.381325721740723 7.721179962158203 8.431906700134277 7.720786571502686 8.482008934020996 7.720786571502686 C 13.09596729278564 7.720786571502686 16.87593841552734 11.02069854736328 16.95682144165039 15.15238285064697 C 17.02077865600586 18.42846298217773 11.80992889404297 18.78179931640625 9.55985164642334 18.7818489074707 C 8.94126033782959 18.78186225891113 8.546880722045898 18.75517272949219 8.546880722045898 18.75517272949219 C 8.546880722045898 18.75517272949219 7.852780818939209 18.8238639831543 6.860500812530518 18.82387351989746 Z M 8.453340530395508 7.563642978668213 C 6.11211109161377 7.563642978668213 4.213921070098877 5.8703932762146 4.213921070098877 3.781723260879517 C 4.213921070098877 1.693263173103333 6.11211109161377 3.179016175636207e-06 8.453340530395508 3.179016175636207e-06 C 10.79479122161865 3.179016175636207e-06 12.69298076629639 1.693263173103333 12.69298076629639 3.781723260879517 C 12.69298076629639 5.8703932762146 10.79479122161865 7.563642978668213 8.453340530395508 7.563642978668213 Z" stroke="none" fill="#4d4dff"/>
      </g>
    </g>
    <g id="Component_1_12" data-name="Component 1 – 12" transform="translate(116 21.5)">
      <g id="Union_17-12" data-name="Union 17" fill="#707070">
        <path d="M 6.860490798950195 18.32387351989746 C 5.700691223144531 18.32388305664062 4.035221099853516 18.22693252563477 2.687381029129028 17.76498413085938 C 1.237661004066467 17.26812362670898 0.5225610136985779 16.49672317504883 0.5012210011482239 15.40671348571777 C 0.4674509763717651 13.6814136505127 1.146031022071838 12.00912284851074 2.411971092224121 10.69788360595703 C 3.896811008453369 9.159913063049316 6.057071208953857 8.257452964782715 8.338821411132812 8.221902847290039 C 8.386521339416504 8.221162796020508 8.434491157531738 8.220783233642578 8.482010841369629 8.220783233642578 C 10.59418106079102 8.220783233642578 12.58578109741211 8.946183204650879 14.08992099761963 10.26336288452148 C 15.58000087738037 11.56822299957275 16.42062187194824 13.30799293518066 16.4569206237793 15.1621732711792 C 16.46862030029297 15.76169300079346 16.27154159545898 16.25991249084473 15.85443115234375 16.68525314331055 C 14.44139099121094 18.12618255615234 10.98171138763428 18.28181266784668 9.559841156005859 18.2818431854248 C 8.968360900878906 18.28186225891113 8.584300994873047 18.25656318664551 8.580491065979004 18.25630378723145 L 8.539091110229492 18.2535228729248 L 8.497640609741211 18.25760269165039 C 8.491050720214844 18.25825309753418 7.813011169433594 18.3238639831543 6.860490798950195 18.32387351989746 Z M 8.453340530395508 7.063642978668213 C 6.391420841217041 7.063642978668213 4.713921070098877 5.59138298034668 4.713921070098877 3.781723260879517 C 4.713921070098877 1.97217321395874 6.391420841217041 0.5000031590461731 8.453340530395508 0.5000031590461731 C 10.515380859375 0.5000031590461731 12.19298076629639 1.97217321395874 12.19298076629639 3.781723260879517 C 12.19298076629639 5.59138298034668 10.515380859375 7.063642978668213 8.453340530395508 7.063642978668213 Z" stroke="none"/>
        <path d="M 6.860490798950195 17.82387351989746 C 7.784750938415527 17.8238639831543 8.442450523376465 17.76061248779297 8.44840145111084 17.76003265380859 L 8.531291007995605 17.75193405151367 L 8.613810539245605 17.75741386413574 C 8.617481231689453 17.75766372680664 8.988210678100586 17.78186225891113 9.559830665588379 17.7818431854248 C 12.38949108123779 17.78179359436035 14.60916137695312 17.2409839630127 15.4974308013916 16.33518409729004 C 15.8200511932373 16.00620269775391 15.96608066558838 15.63656330108643 15.95701122283936 15.17195320129395 C 15.92350101470947 13.4601936340332 15.14344120025635 11.85054302215576 13.76052093505859 10.63952350616455 C 12.34757137298584 9.402203559875488 10.47296142578125 8.720783233642578 8.482010841369629 8.720783233642578 C 8.437061309814453 8.720783233642578 8.391671180725098 8.721142768859863 8.346611022949219 8.721842765808105 C 6.196831226348877 8.755332946777344 4.164851188659668 9.602152824401855 2.771681070327759 11.04517364501953 C 1.598770976066589 12.26005363464355 0.9699810147285461 13.80553340911865 1.001130938529968 15.39693355560303 C 1.01180100440979 15.94216346740723 1.215021014213562 16.73180389404297 2.849490880966187 17.29199409484863 C 4.132201194763184 17.73162269592285 5.738680839538574 17.82388305664062 6.860490798950195 17.82387351989746 M 8.453340530395508 6.563642978668213 C 10.23968124389648 6.563642978668213 11.69298076629639 5.315683364868164 11.69298076629639 3.781723260879517 C 11.69298076629639 2.247873067855835 10.23968124389648 1.000003218650818 8.453340530395508 1.000003218650818 C 6.667120933532715 1.000003218650818 5.213921070098877 2.247873067855835 5.213921070098877 3.781723260879517 C 5.213921070098877 5.315683364868164 6.667120933532715 6.563642978668213 8.453340530395508 6.563642978668213 M 6.860500812530518 18.82387351989746 C 4.387111186981201 18.82390403747559 0.05967099219560623 18.39724349975586 0.00132099085021764 15.41650295257568 C -0.0804390087723732 11.2397632598877 3.649000883102417 7.79490327835083 8.33103084564209 7.721963405609131 C 8.381325721740723 7.721179962158203 8.431906700134277 7.720786571502686 8.482008934020996 7.720786571502686 C 13.09596729278564 7.720786571502686 16.87593841552734 11.02069854736328 16.95682144165039 15.15238285064697 C 17.02077865600586 18.42846298217773 11.80992889404297 18.78179931640625 9.55985164642334 18.7818489074707 C 8.94126033782959 18.78186225891113 8.546880722045898 18.75517272949219 8.546880722045898 18.75517272949219 C 8.546880722045898 18.75517272949219 7.852780818939209 18.8238639831543 6.860500812530518 18.82387351989746 Z M 8.453340530395508 7.563642978668213 C 6.11211109161377 7.563642978668213 4.213921070098877 5.8703932762146 4.213921070098877 3.781723260879517 C 4.213921070098877 1.693263173103333 6.11211109161377 3.179016175636207e-06 8.453340530395508 3.179016175636207e-06 C 10.79479122161865 3.179016175636207e-06 12.69298076629639 1.693263173103333 12.69298076629639 3.781723260879517 C 12.69298076629639 5.8703932762146 10.79479122161865 7.563642978668213 8.453340530395508 7.563642978668213 Z" stroke="none" fill="#707070"/>
      </g>
    </g>
    <g id="Component_1_13" data-name="Component 1 – 13" transform="translate(90 97.5)">
      <g id="Union_17-13" data-name="Union 17" transform="translate(0)" fill="#daa520">
        <path d="M 4.045732498168945 10.49999523162842 L 4.045722484588623 10.49999523162842 C 3.377032518386841 10.5000057220459 2.418592691421509 10.44522571563721 1.649982571601868 10.18418502807617 C 0.5164926052093506 9.799225807189941 0.5045925974845886 9.196905136108398 0.5006825923919678 8.99897575378418 C 0.4820125997066498 8.053825378417969 0.8565025925636292 7.134755611419678 1.55516254901886 6.411065578460693 C 2.393922567367554 5.542255401611328 3.620592594146729 5.032445430755615 4.920632362365723 5.012375354766846 C 4.947712421417236 5.011955261230469 4.974942684173584 5.011745452880859 5.001932621002197 5.011745452880859 C 6.198602676391602 5.011745452880859 7.325682640075684 5.417895317077637 8.175552368164062 6.155365467071533 C 9.009252548217773 6.878825664520264 9.479532241821289 7.840905666351318 9.499752998352051 8.864385604858398 C 9.505522727966309 9.157205581665039 9.413082122802734 9.390615463256836 9.208852767944336 9.598925590515137 C 8.67075252532959 10.14773559570312 7.335692405700684 10.4754056930542 5.63756275177002 10.47544574737549 C 5.29674243927002 10.47545528411865 5.075602531433105 10.46110534667969 5.073412418365479 10.46095561981201 L 5.032482624053955 10.45825576782227 L 4.991402626037598 10.46224498748779 C 4.987762451171875 10.46259498596191 4.59608268737793 10.49999523162842 4.045732498168945 10.49999523162842 Z M 4.985042572021484 3.919925451278687 C 3.88221263885498 3.919925451278687 2.985002517700195 3.152815341949463 2.985002517700195 2.209905385971069 C 2.985002517700195 1.26705539226532 3.88221263885498 0.4999954402446747 4.985042572021484 0.4999954402446747 C 6.087942600250244 0.4999954402446747 6.985212802886963 1.26705539226532 6.985212802886963 2.209905385971069 C 6.985212802886963 3.152815341949463 6.087942600250244 3.919925451278687 4.985042572021484 3.919925451278687 Z" stroke="none"/>
        <path d="M 4.045732498168945 9.999995231628418 C 4.568252563476562 9.999995231628418 4.939902782440186 9.964885711669922 4.942602634429932 9.964625358581543 L 5.024772644042969 9.956735610961914 L 5.106122493743896 9.962035179138184 C 5.108192443847656 9.962165832519531 5.316242694854736 9.975455284118652 5.637552738189697 9.975445747375488 C 7.180812358856201 9.975415229797363 8.412452697753906 9.697005271911621 8.851832389831543 9.248875617980957 C 8.961452484130859 9.137065887451172 9.002952575683594 9.032015800476074 8.999852180480957 8.874265670776367 C 8.963222503662109 7.02016544342041 7.169772624969482 5.511745452880859 5.001932621002197 5.511745452880859 C 4.977532386779785 5.511745452880859 4.9529128074646 5.511935234069824 4.928352355957031 5.512315273284912 C 3.760312557220459 5.530355453491211 2.661942481994629 5.984505653381348 1.914872646331787 6.758345603942871 C 1.309262633323669 7.385655403137207 0.9845625758171082 8.177885055541992 1.000582575798035 8.989105224609375 C 1.003242611885071 9.123615264892578 1.009462594985962 9.438595771789551 1.81077253818512 9.710745811462402 C 2.367982625961304 9.899985313415527 3.140822649002075 10.0000057220459 4.045722484588623 9.999995231628418 L 4.045732498168945 9.999995231628418 M 4.985042572021484 3.419925451278687 C 5.81224250793457 3.419925451278687 6.485212802886963 2.877115488052368 6.485212802886963 2.209905385971069 C 6.485212802886963 1.542755484580994 5.81224250793457 0.9999954700469971 4.985042572021484 0.9999954700469971 C 4.157922744750977 0.9999954700469971 3.485002517700195 1.542755484580994 3.485002517700195 2.209905385971069 C 3.485002517700195 2.877115488052368 4.157922744750977 3.419925451278687 4.985042572021484 3.419925451278687 M 4.045732498168945 10.99999523162842 C 2.587132692337036 11.00001525878906 0.0351925864815712 10.75069522857666 0.0007825879147276282 9.008855819702148 C -0.04743741080164909 6.568115234375 2.151862621307373 4.555065631866455 4.912912368774414 4.512435436248779 C 4.942572116851807 4.511977672576904 4.972384452819824 4.511748313903809 5.001930713653564 4.511748313903809 C 7.722844123840332 4.511748313903809 9.951960563659668 6.440103054046631 9.999652862548828 8.854515075683594 C 10.03737258911133 10.76894092559814 6.964475631713867 10.97541618347168 5.637575149536133 10.97544384002686 C 5.272783279418945 10.97545146942139 5.040202617645264 10.95985507965088 5.040202617645264 10.95985507965088 C 5.040202617645264 10.95985507965088 4.630882740020752 10.99999523162842 4.045732498168945 10.99999523162842 Z M 4.985042572021484 4.419925212860107 C 3.604392528533936 4.419925212860107 2.485002517700195 3.430445432662964 2.485002517700195 2.209905385971069 C 2.485002517700195 0.989475429058075 3.604392528533936 -4.553680355456891e-06 4.985042572021484 -4.553680355456891e-06 C 6.365822792053223 -4.553680355456891e-06 7.485212802886963 0.989475429058075 7.485212802886963 2.209905385971069 C 7.485212802886963 3.430445432662964 6.365822792053223 4.419925212860107 4.985042572021484 4.419925212860107 Z" stroke="none" fill="#daa520"/>
      </g>
    </g>
    <g id="Component_1_14" data-name="Component 1 – 14" transform="translate(162 98.5)">
      <g id="Union_17-14" data-name="Union 17" transform="translate(0)" fill="navy">
        <path d="M 4.854873657226562 13.49999713897705 L 4.85486364364624 13.49999713897705 C 4.04706335067749 13.50000667572021 2.88848352432251 13.42955684661865 1.956463575363159 13.09383678436279 C 0.5217135548591614 12.5770263671875 0.5060135722160339 11.73364639282227 0.5008435845375061 11.45650672912598 C 0.4766235947608948 10.15587711334229 0.9773736000061035 8.907176971435547 1.910853624343872 7.940446853637695 C 2.928453683853149 6.8865966796875 4.383773803710938 6.267916679382324 5.903673648834229 6.24303674697876 C 5.936543464660645 6.242496490478516 5.969593524932861 6.242236614227295 6.002333641052246 6.242236614227295 C 7.457013607025146 6.242236614227295 8.828913688659668 6.767536640167236 9.865303993225098 7.721376895904541 C 10.8941535949707 8.668266296386719 11.47457313537598 9.93161678314209 11.49967384338379 11.2786865234375 C 11.507643699646 11.70811653137207 11.36908340454102 12.06199645996094 11.07606315612793 12.36051654815674 C 10.09432315826416 13.36069679260254 7.734213352203369 13.46872711181641 6.765073776245117 13.46874713897705 C 6.353333473205566 13.46875667572021 6.086133480072021 13.45033645629883 6.083483695983887 13.45014667510986 L 6.040053367614746 13.44710636138916 L 5.996513366699219 13.45158672332764 C 5.992043495178223 13.45204639434814 5.519213676452637 13.49999713897705 4.854873657226562 13.49999713897705 Z M 5.982053756713867 5.125356674194336 C 4.603523731231689 5.125356674194336 3.482003688812256 4.087856769561768 3.482003688812256 2.812606811523438 C 3.482003688812256 1.537426710128784 4.603523731231689 0.4999967217445374 5.982053756713867 0.4999967217445374 C 7.360663414001465 0.4999967217445374 8.482254028320312 1.537426710128784 8.482254028320312 2.812606811523438 C 8.482254028320312 4.087856769561768 7.360663414001465 5.125356674194336 5.982053756713867 5.125356674194336 Z" stroke="none"/>
        <path d="M 4.854873657226562 12.99999713897705 C 5.489653587341309 12.99999713897705 5.941223621368408 12.9546365737915 5.944783687591553 12.95427703857422 L 6.031863689422607 12.9453763961792 L 6.118253707885742 12.95135688781738 C 6.120763778686523 12.95153713226318 6.374063491821289 12.96875667572021 6.765053749084473 12.96874713897705 C 8.651983261108398 12.96869659423828 10.13018321990967 12.61038684844971 10.7192440032959 12.01026630401611 C 10.91874313354492 11.8070068359375 11.00526332855225 11.58424663543701 10.99975395202637 11.28799629211426 C 10.97723388671875 10.07878684997559 10.45409393310547 8.94279670715332 9.526713371276855 8.089276313781738 C 8.582873344421387 7.220626831054688 7.331233501434326 6.742236614227295 6.002333641052246 6.742236614227295 C 5.972283363342285 6.742236614227295 5.941953659057617 6.742486476898193 5.911863803863525 6.742976665496826 C 4.523773670196533 6.76569652557373 3.196563482284546 7.328746795654297 2.270543575286865 8.28775691986084 C 1.429973602294922 9.158267021179199 0.9790235757827759 10.28030681610107 1.000763535499573 11.44719696044922 C 1.005083560943604 11.67944717407227 1.01521360874176 12.22333717346191 2.125913619995117 12.62342643737793 C 2.990043640136719 12.9346866607666 4.086883544921875 13.00000667572021 4.854853630065918 12.99999713897705 L 4.854873657226562 12.99999713897705 M 5.982053756713867 4.625356674194336 C 7.084963798522949 4.625356674194336 7.982253551483154 3.812156677246094 7.982253551483154 2.812606811523438 C 7.982253551483154 1.813126683235168 7.084963798522949 0.9999967217445374 5.982053756713867 0.9999967217445374 C 4.879223346710205 0.9999967217445374 3.982003688812256 1.813126683235168 3.982003688812256 2.812606811523438 C 3.982003688812256 3.812156677246094 4.879223346710205 4.625356674194336 5.982053756713867 4.625356674194336 M 4.854873657226562 13.99999713897705 C 3.104563474655151 14.00002670288086 0.04222358390688896 13.68269634246826 0.0009335823124274611 11.46581649780273 C -0.0569264180958271 8.359416961669922 2.582233667373657 5.797346591949463 5.895493507385254 5.743106842041016 C 5.931085109710693 5.742524147033691 5.966877460479736 5.742231845855713 6.00233268737793 5.742231845855713 C 9.267428398132324 5.742231845855713 11.94234466552734 8.196495056152344 11.99958324432373 11.26937675476074 C 12.04484939575195 13.7059211730957 8.357363700866699 13.96870994567871 6.765082836151123 13.96874618530273 C 6.327332496643066 13.9687557220459 6.048243522644043 13.94890689849854 6.048243522644043 13.94890689849854 C 6.048243522644043 13.94890689849854 5.557063579559326 13.99999713897705 4.854873657226562 13.99999713897705 Z M 5.982053756713867 5.625356674194336 C 4.325273513793945 5.625356674194336 2.982003688812256 4.366026878356934 2.982003688812256 2.812606811523438 C 2.982003688812256 1.259336709976196 4.325273513793945 -3.285064622104983e-06 5.982053756713867 -3.285064622104983e-06 C 7.638993740081787 -3.285064622104983e-06 8.982254028320312 1.259336709976196 8.982254028320312 2.812606811523438 C 8.982254028320312 4.366026878356934 7.638993740081787 5.625356674194336 5.982053756713867 5.625356674194336 Z" stroke="none" fill="navy"/>
      </g>
    </g>
    <g id="Component_1_15" data-name="Component 1 – 15" transform="translate(283 232.5)">
      <g id="Union_17-15" data-name="Union 17" transform="translate(0)" fill="navy">
        <path d="M 4.045732498168945 10.99999523162842 L 4.045722484588623 10.99999523162842 C 3.378652572631836 11.0000057220459 2.42265248298645 10.94291591644287 1.656482577323914 10.67087554931641 C 0.6350225806236267 10.30819511413574 0.5076525807380676 9.776945114135742 0.50069260597229 9.408895492553711 C 0.4811925888061523 8.376785278320312 0.8816226124763489 7.382535457611084 1.628212571144104 6.609315395355225 C 2.462692499160767 5.745095729827881 3.66285252571106 5.237785339355469 4.920982360839844 5.217485427856445 C 4.947952747344971 5.217055320739746 4.975082397460938 5.216835498809814 5.001952648162842 5.216835498809814 C 6.194562435150146 5.216835498809814 7.318702697753906 5.640815734863281 8.167312622070312 6.410675525665283 C 9.006122589111328 7.171645641326904 9.47932243347168 8.185845375061035 9.49974250793457 9.266435623168945 C 9.50582218170166 9.589235305786133 9.40129280090332 9.855705261230469 9.180172920227051 10.08103561401367 C 8.623122215270996 10.64869594573975 7.331882476806641 10.9742956161499 5.637552738189697 10.97433567047119 C 5.29761266708374 10.97433567047119 5.07709264755249 10.95939540863037 5.074902534484863 10.9592456817627 L 5.032132625579834 10.95628547668457 L 4.989212512969971 10.96064567565918 C 4.985602378845215 10.96100521087646 4.594822406768799 10.99999523162842 4.045732498168945 10.99999523162842 Z M 4.985042572021484 4.120835304260254 C 3.88221263885498 4.120835304260254 2.985002517700195 3.308655500411987 2.985002517700195 2.310355424880981 C 2.985002517700195 1.312115550041199 3.88221263885498 0.4999954998493195 4.985042572021484 0.4999954998493195 C 6.087942600250244 0.4999954998493195 6.985212802886963 1.312115550041199 6.985212802886963 2.310355424880981 C 6.985212802886963 3.308655500411987 6.087942600250244 4.120835304260254 4.985042572021484 4.120835304260254 Z" stroke="none"/>
        <path d="M 4.045732498168945 10.49999523162842 C 4.565762519836426 10.49999523162842 4.935632705688477 10.46350574493408 4.938222408294678 10.4632453918457 L 5.024062633514404 10.45464515686035 L 5.10903263092041 10.46040534973145 C 5.111082553863525 10.46054553985596 5.317972660064697 10.47433567047119 5.637542724609375 10.47433567047119 C 7.15258264541626 10.47430515289307 8.373292922973633 10.18940544128418 8.823302268981934 9.730835914611816 C 8.952302932739258 9.59937572479248 9.003442764282227 9.467555046081543 8.999832153320312 9.275875091552734 C 8.98204231262207 8.334465026855469 8.567072868347168 7.448435306549072 7.831362724304199 6.78099536895752 C 7.07493257522583 6.09475564956665 6.070092678070068 5.716835498809814 5.001952648162842 5.716835498809814 C 4.977782726287842 5.716835498809814 4.953362464904785 5.717035293579102 4.929042816162109 5.717425346374512 C 3.802782535552979 5.735595703125 2.730772495269775 6.187265396118164 1.987912535667419 6.956625461578369 C 1.334262609481812 7.633585453033447 0.9836325645446777 8.501125335693359 1.000602602958679 9.399455070495605 C 1.003742575645447 9.565445899963379 1.010262608528137 9.910845756530762 1.823782563209534 10.1996955871582 C 2.377122640609741 10.39616584777832 3.145452499389648 10.5000057220459 4.045722484588623 10.49999523162842 L 4.045732498168945 10.49999523162842 M 4.985042572021484 3.620835542678833 C 5.81224250793457 3.620835542678833 6.485212802886963 3.032955408096313 6.485212802886963 2.310355424880981 C 6.485212802886963 1.587825536727905 5.81224250793457 0.9999954700469971 4.985042572021484 0.9999954700469971 C 4.157922744750977 0.9999954700469971 3.485002517700195 1.587825536727905 3.485002517700195 2.310355424880981 C 3.485002517700195 3.032955408096313 4.157922744750977 3.620835542678833 4.985042572021484 3.620835542678833 M 4.045732498168945 11.49999523162842 C 2.587132692337036 11.50001525878906 0.0351925864815712 11.23935508728027 0.0007825879147276282 9.41834545135498 C -0.04743741080164909 6.866665363311768 2.151862621307373 4.762105464935303 4.912912368774414 4.717555522918701 C 4.942572116851807 4.717076778411865 4.972410202026367 4.716836452484131 5.001956462860107 4.716836452484131 C 7.722869873046875 4.716836452484131 9.951960563659668 6.732834815979004 9.999652862548828 9.256985664367676 C 10.03737258911133 11.25843620300293 6.964459896087646 11.4743013381958 5.637558937072754 11.47433185577393 C 5.272767543792725 11.47434043884277 5.040202617645264 11.45803546905518 5.040202617645264 11.45803546905518 C 5.040202617645264 11.45803546905518 4.630882740020752 11.49999523162842 4.045732498168945 11.49999523162842 Z M 4.985042572021484 4.620835304260254 C 3.604392528533936 4.620835304260254 2.485002517700195 3.58637547492981 2.485002517700195 2.310355424880981 C 2.485002517700195 1.034455537796021 3.604392528533936 -4.501190232986119e-06 4.985042572021484 -4.501190232986119e-06 C 6.365822792053223 -4.501190232986119e-06 7.485212802886963 1.034455537796021 7.485212802886963 2.310355424880981 C 7.485212802886963 3.58637547492981 6.365822792053223 4.620835304260254 4.985042572021484 4.620835304260254 Z" stroke="none" fill="navy"/>
      </g>
    </g>
    <g id="Component_1_16" data-name="Component 1 – 16" transform="translate(278 165.5)">
      <g id="Union_17-16" data-name="Union 17" transform="translate(0)" fill="#707070">
        <path d="M 5.243258476257324 15.32000160217285 C 4.369368553161621 15.32001113891602 3.115758419036865 15.24016189575195 2.106318473815918 14.85972118377686 C 1.041828393936157 14.45853137969971 0.5166983604431152 13.83303165435791 0.5009284019470215 12.94747161865234 C 0.473118394613266 11.38521194458008 1.067678332328796 9.905331611633301 2.175078392028809 8.780461311340332 C 3.285018444061279 7.653021812438965 4.776828289031982 7.017021656036377 6.375698566436768 6.989641666412354 C 6.411288261413574 6.989031791687012 6.447088241577148 6.988721370697021 6.482538223266602 6.988721370697021 C 8.0594482421875 6.988721370697021 9.547798156738281 7.5856614112854 10.67340850830078 8.669581413269043 C 11.79778861999512 9.752311706542969 12.43214797973633 11.19905185699463 12.45963859558105 12.74330139160156 C 12.46894836425781 13.26758193969727 12.30232810974121 13.69666194915771 11.95025825500488 14.05504131317139 C 10.86006832122803 15.16479206085205 8.339407920837402 15.28465175628662 7.306278228759766 15.28468132019043 C 6.860898494720459 15.28469181060791 6.571848392486572 15.26383113861084 6.568978309631348 15.26362133026123 L 6.523538589477539 15.26028156280518 L 6.478018283843994 15.26519203186035 C 6.47316837310791 15.26572132110596 5.96176815032959 15.31999206542969 5.243258476257324 15.32000160217285 Z M 6.460618495941162 5.856651782989502 C 4.949748516082764 5.856651782989502 3.720568418502808 4.655121803283691 3.720568418502808 3.178251504898071 C 3.720568418502808 1.701461553573608 4.949748516082764 0.5000016093254089 6.460618495941162 0.5000016093254089 C 7.971578598022461 0.5000016093254089 9.200838088989258 1.701461553573608 9.200838088989258 3.178251504898071 C 9.200838088989258 4.655121803283691 7.971578598022461 5.856651782989502 6.460618495941162 5.856651782989502 Z" stroke="none"/>
        <path d="M 5.243258476257324 14.82000160217285 C 5.930838584899902 14.81999206542969 6.419998168945312 14.76855182647705 6.4239182472229 14.76813125610352 L 6.514978408813477 14.75839138031006 L 6.605378150939941 14.76495170593262 C 6.60809850692749 14.76515197753906 6.882598400115967 14.78469181060791 7.306268215179443 14.78468132019043 C 9.326518058776855 14.78463172912598 10.92925834655762 14.38088130950928 11.59356880187988 13.70465183258057 C 11.85026836395264 13.44335174560547 11.96661853790283 13.14069175720215 11.95971870422363 12.75220203399658 C 11.93460845947266 11.3416919708252 11.35461807250977 10.01969146728516 10.32658863067627 9.029751777648926 C 9.294618606567383 8.036001205444336 7.92944860458374 7.488721370697021 6.482538223266602 7.488721370697021 C 6.449948310852051 7.488721370697021 6.417028427124023 7.489001750946045 6.384268283843994 7.489561557769775 C 4.917168617248535 7.514691829681396 3.548858404159546 8.097722053527832 2.531388282775879 9.131241798400879 C 1.51900839805603 10.15959167480469 0.9754483699798584 11.51173114776611 1.000848412513733 12.93857192993164 C 1.00894832611084 13.3933219909668 1.161958336830139 13.96948146820068 2.282658338546753 14.3918514251709 C 3.221638441085815 14.74574184417725 4.410918235778809 14.82001113891602 5.243258476257324 14.82000160217285 M 6.460618495941162 5.356651782989502 C 7.695878505706787 5.356651782989502 8.700838088989258 4.379421710968018 8.700838088989258 3.178251504898071 C 8.700838088989258 1.977161645889282 7.695878505706787 1.000001549720764 6.460618495941162 1.000001549720764 C 5.225448608398438 1.000001549720764 4.220568180084229 1.977161645889282 4.220568180084229 3.178251504898071 C 4.220568180084229 4.379421710968018 5.225448608398438 5.356651782989502 6.460618495941162 5.356651782989502 M 5.243268489837646 15.82000160217285 C 3.352928400039673 15.8200216293335 0.04560838267207146 15.46145153045654 0.001008383347652853 12.95637130737305 C -0.06148161739110947 9.446141242980957 2.788818359375 6.55100154876709 6.367138385772705 6.489711761474609 C 6.405577182769775 6.489053249359131 6.444249153137207 6.488722801208496 6.482540607452393 6.488722801208496 C 10.00884342193604 6.488722801208496 12.89773941040039 9.26203727722168 12.95955848693848 12.73440170288086 C 13.0084400177002 15.48768711090088 9.025954246520996 15.78463840484619 7.306291103363037 15.7846794128418 C 6.833520889282227 15.78469085693359 6.532108306884766 15.76226139068604 6.532108306884766 15.76226139068604 C 6.532108306884766 15.76226139068604 6.001628398895264 15.81999206542969 5.243268489837646 15.82000160217285 Z M 6.460618495941162 6.356651782989502 C 4.67128849029541 6.356651782989502 3.220568418502808 4.933601379394531 3.220568418502808 3.178251504898071 C 3.220568418502808 1.423051595687866 4.67128849029541 1.592102080394397e-06 6.460618495941162 1.592102080394397e-06 C 8.25010871887207 1.592102080394397e-06 9.700838088989258 1.423051595687866 9.700838088989258 3.178251504898071 C 9.700838088989258 4.933601379394531 8.25010871887207 6.356651782989502 6.460618495941162 6.356651782989502 Z" stroke="none" fill="#707070"/>
      </g>
    </g>
    <g id="Component_1_17" data-name="Component 1 – 17" transform="translate(50 153.5)">
      <g id="Union_17-17" data-name="Union 17" transform="translate(0)" fill="#4d4dff">
        <path d="M 3.220401525497437 8.319998741149902 L 3.220391511917114 8.319998741149902 C 2.696071624755859 8.320009231567383 1.945481657981873 8.277058601379395 1.347241640090942 8.072399139404297 C 0.5117616057395935 7.786569118499756 0.503601610660553 7.370358943939209 0.5005216002464294 7.213668823242188 C 0.4860916137695312 6.477619171142578 0.7773715853691101 5.7623291015625 1.320701599121094 5.199548721313477 C 1.969181656837463 4.527858734130859 2.9160315990448 4.133678913116455 3.918451547622681 4.118098735809326 C 3.93947172164917 4.11776876449585 3.960631608963013 4.117609024047852 3.981571674346924 4.117609024047852 C 5.86713171005249 4.117609024047852 7.427461624145508 5.459768772125244 7.459821701049805 7.109508991241455 C 7.463891506195068 7.317739009857178 7.398411750793457 7.483438968658447 7.253751754760742 7.630959033966064 C 6.842781543731689 8.05005931854248 5.808671474456787 8.300278663635254 4.487501621246338 8.300309181213379 C 4.220351696014404 8.300309181213379 4.047101497650146 8.28903865814209 4.045381546020508 8.288928985595703 L 4.004221439361572 8.286198616027832 L 3.962841510772705 8.290228843688965 C 3.96010160446167 8.290498733520508 3.652571678161621 8.319998741149902 3.220401525497437 8.319998741149902 Z M 3.968091726303101 3.043978929519653 C 3.146481513977051 3.043978929519653 2.478061676025391 2.47334885597229 2.478061676025391 1.771938920021057 C 2.478061676025391 1.070588946342468 3.146481513977051 0.4999989569187164 3.968091726303101 0.4999989569187164 C 4.789761543273926 0.4999989569187164 5.458231449127197 1.070588946342468 5.458231449127197 1.771938920021057 C 5.458231449127197 2.47334885597229 4.789761543273926 3.043978929519653 3.968091726303101 3.043978929519653 Z" stroke="none"/>
        <path d="M 3.220401525497437 7.819998741149902 C 3.624651670455933 7.819998741149902 3.91210150718689 7.79279899597168 3.913681507110596 7.792648792266846 L 3.996461629867554 7.784688949584961 L 4.078141689300537 7.789999008178711 C 4.079721450805664 7.790099143981934 4.23988151550293 7.800318717956543 4.487491607666016 7.800309181213379 C 5.799961566925049 7.800289154052734 6.643241405487061 7.539409160614014 6.896761417388916 7.280879020690918 C 6.94780158996582 7.228828907012939 6.961381435394287 7.194088935852051 6.959911823272705 7.119318962097168 C 6.932861804962158 5.739869117736816 5.596781730651855 4.617609024047852 3.981571674346924 4.617609024047852 C 3.96325159072876 4.617609024047852 3.944741725921631 4.617748737335205 3.926231622695923 4.618039131164551 C 3.055781602859497 4.631568908691406 2.237221717834473 4.970098972320557 1.680411577224731 5.546828746795654 C 1.230111598968506 6.013248920440674 0.9886215925216675 6.601728916168213 1.000431656837463 7.203858852386475 C 1.001621603965759 7.264829158782959 1.004801630973816 7.426798820495605 1.509081602096558 7.599318981170654 C 1.925101637840271 7.741639137268066 2.532851696014404 7.820008754730225 3.220381498336792 7.819998741149902 L 3.220401525497437 7.819998741149902 M 3.968091726303101 2.543978929519653 C 4.504801750183105 2.543978929519653 4.958231449127197 2.190428972244263 4.958231449127197 1.771938920021057 C 4.958231449127197 1.353508949279785 4.504801750183105 0.999998927116394 3.968091726303101 0.999998927116394 C 3.43144154548645 0.999998927116394 2.978061676025391 1.353508949279785 2.978061676025391 1.771938920021057 C 2.978061676025391 2.190428972244263 3.43144154548645 2.543978929519653 3.968091726303101 2.543978929519653 M 3.220401525497437 8.819998741149902 C 2.059361696243286 8.820018768310547 0.02801161259412766 8.620099067687988 0.0006216125329956412 7.223468780517578 C -0.03775838762521744 5.266438961029053 1.712881565093994 3.652328968048096 3.91068172454834 3.618159055709839 C 3.934290647506714 3.617791891098022 3.958050489425659 3.617607355117798 3.981569051742554 3.617607355117798 C 6.14741039276123 3.617607355117798 7.921753883361816 5.163790702819824 7.959721565246582 7.099709033966064 C 7.989747047424316 8.634730339050293 5.543722629547119 8.800285339355469 4.487510204315186 8.800308227539062 C 4.197135925292969 8.800313949584961 4.012001514434814 8.787809371948242 4.012001514434814 8.787809371948242 C 4.012001514434814 8.787809371948242 3.686181545257568 8.819998741149902 3.220401525497437 8.819998741149902 Z M 3.968091726303101 3.543978929519653 C 2.869091510772705 3.543978929519653 1.978061556816101 2.750598907470703 1.978061556816101 1.771938920021057 C 1.978061556816101 0.7933789491653442 2.869091510772705 -1.050109858624637e-06 3.968091726303101 -1.050109858624637e-06 C 5.067201614379883 -1.050109858624637e-06 5.958231449127197 0.7933789491653442 5.958231449127197 1.771938920021057 C 5.958231449127197 2.750598907470703 5.067201614379883 3.543978929519653 3.968091726303101 3.543978929519653 Z" stroke="none" fill="#4d4dff"/>
      </g>
    </g>
  </g>
</svg>
