<svg xmlns="http://www.w3.org/2000/svg" viewBox="0 0 15 15">
  <g id="Union_63" data-name="Union 63" transform="translate(0 757)" fill="#fff">
    <path d="M 9.177450180053711 -742.4999389648438 L 5.822549819946289 -742.4999389648438 L 5.822549819946289 -747.4998779296875 L 5.822549819946289 -747.9998779296875 L 5.322549819946289 -747.9998779296875 L 1.03176748752594 -747.9998779296875 L 7.5 -756.1930541992188 L 13.96823215484619 -747.9998779296875 L 9.677450180053711 -747.9998779296875 L 9.177450180053711 -747.9998779296875 L 9.177450180053711 -747.4998779296875 L 9.177450180053711 -742.4999389648438 Z" stroke="none"/>
    <path d="M 8.677450180053711 -742.9999389648438 L 8.677450180053711 -747.4998779296875 L 8.677450180053711 -748.4998779296875 L 9.677450180053711 -748.4998779296875 L 12.9364652633667 -748.4998779296875 L 7.5 -755.3861083984375 L 2.06353497505188 -748.4998779296875 L 5.322549819946289 -748.4998779296875 L 6.322549819946289 -748.4998779296875 L 6.322549819946289 -747.4998779296875 L 6.322549819946289 -742.9999389648438 L 8.677450180053711 -742.9999389648438 M 9.677450180053711 -741.9999389648438 L 5.322549819946289 -741.9999389648438 L 5.322549819946289 -747.4998779296875 L -8.881784197001252e-16 -747.4998779296875 L 7.5 -756.9999389648438 L 15 -747.4998779296875 L 9.677450180053711 -747.4998779296875 L 9.677450180053711 -741.9999389648438 Z" stroke="none" fill="navy"/>
  </g>
</svg>
