<svg xmlns="http://www.w3.org/2000/svg" width="50" height="50" viewBox="0 0 50 50">
  <g id="Subtraction_23" data-name="Subtraction 23" transform="translate(1335)" fill="#fff">
    <path d="M -1310 49 C -1313.240478515625 49 -1316.383422851562 48.36557006835938 -1319.341552734375 47.11433029174805 C -1322.19921875 45.90560913085938 -1324.765991210938 44.17494964599609 -1326.970458984375 41.97042083740234 C -1329.175048828125 39.76578903198242 -1330.905639648438 37.19898986816406 -1332.114135742188 34.34136962890625 C -1333.365356445312 31.38324928283691 -1333.999755859375 28.24028015136719 -1333.999755859375 24.99971961975098 C -1333.999755859375 21.75915908813477 -1333.365356445312 18.61622047424316 -1332.114135742188 15.65820980072021 C -1330.905639648438 12.80060958862305 -1329.175048828125 10.23388004302979 -1326.970458984375 8.029279708862305 C -1324.765991210938 5.824870109558105 -1322.19921875 4.0942702293396 -1319.341552734375 2.885600090026855 C -1316.383422851562 1.634400010108948 -1313.240478515625 1 -1310 1 C -1306.759521484375 1 -1303.616577148438 1.63441002368927 -1300.658325195312 2.885600090026855 C -1297.800537109375 4.094250202178955 -1295.233764648438 5.824850082397461 -1293.029296875 8.02931022644043 C -1290.824951171875 10.23353958129883 -1289.09423828125 12.80027961730957 -1287.885375976562 15.65822982788086 C -1286.634155273438 18.61618041992188 -1285.999755859375 21.75912094116211 -1285.999755859375 24.99971961975098 C -1285.999755859375 28.2403392791748 -1286.634155273438 31.38331031799316 -1287.885375976562 34.3413200378418 C -1289.094360351562 37.19932174682617 -1290.824951171875 39.76612091064453 -1293.029296875 41.97042083740234 C -1295.233764648438 44.1749382019043 -1297.800537109375 45.90560150146484 -1300.658325195312 47.11431884765625 C -1303.616577148438 48.36557006835938 -1306.759521484375 49 -1310 49 Z M -1328.407104492188 22.36660957336426 L -1329.161865234375 23.02272033691406 L -1332.463745117188 25.89315032958984 L -1333.218383789062 26.5492000579834 L -1332.562377929688 27.30389022827148 L -1324.338623046875 36.76456832885742 L -1323.503173828125 37.72539901733398 L -1323.07275390625 38.22042846679688 L -1321.491088867188 40.03953170776367 L -1320.8349609375 40.79409027099609 L -1320.080444335938 40.13809967041016 L -1290.83544921875 14.71594047546387 L -1290.080688476562 14.05988025665283 L -1290.736694335938 13.3051700592041 L -1293.58349609375 10.03030014038086 L -1294.239624023438 9.275600433349609 L -1294.994262695312 9.931639671325684 L -1320.183349609375 31.82731056213379 L -1327.7509765625 23.12136077880859 L -1328.407104492188 22.36660957336426 Z" stroke="none"/>
    <path d="M -1310 48 C -1306.894165039062 48 -1303.882202148438 47.39215087890625 -1301.0478515625 46.19332122802734 C -1298.309326171875 45.03501129150391 -1295.849365234375 43.37631988525391 -1293.736328125 41.26332092285156 C -1291.62353515625 39.15053176879883 -1289.96484375 36.6905517578125 -1288.806396484375 33.95175933837891 C -1287.607543945312 31.1176700592041 -1286.999755859375 28.10577011108398 -1286.999755859375 24.99971961975098 C -1286.999755859375 21.89368057250977 -1287.607543945312 18.88182067871094 -1288.806274414062 16.04781913757324 C -1288.98779296875 15.61888599395752 -1289.181396484375 15.19702434539795 -1289.38720703125 14.78203201293945 L -1290.179321289062 15.47064971923828 L -1319.42431640625 40.8928108215332 L -1320.93359375 42.20478820800781 L -1322.245727539062 40.69567108154297 L -1323.827392578125 38.87659072875977 L -1324.2578125 38.38153076171875 L -1325.09326171875 37.42060852050781 L -1332.71240234375 28.655517578125 C -1332.4228515625 30.47320365905762 -1331.915161132812 32.24480819702148 -1331.193115234375 33.95185089111328 C -1330.035034179688 36.69026947021484 -1328.376342773438 39.15021896362305 -1326.263427734375 41.26330947875977 C -1324.150390625 43.3763313293457 -1321.6904296875 45.03503036499023 -1318.951904296875 46.19334030151367 C -1316.117797851562 47.39215087890625 -1313.10595703125 48 -1310 48 M -1320.084594726562 30.41655158996582 L -1295.650390625 9.176919937133789 L -1294.404541015625 8.094025611877441 C -1296.362426757812 6.284909725189209 -1298.593139648438 4.844812870025635 -1301.0478515625 3.806610107421875 C -1303.882202148438 2.607830047607422 -1306.894165039062 2 -1310 2 C -1313.10595703125 2 -1316.117797851562 2.607830047607422 -1318.952026367188 3.806610107421875 C -1321.690551757812 4.964869976043701 -1324.150390625 6.623499870300293 -1326.263427734375 8.736379623413086 C -1328.376342773438 10.84945964813232 -1330.035034179688 13.30933952331543 -1331.193115234375 16.04776954650879 C -1332.391967773438 18.88186073303223 -1332.999755859375 21.89373016357422 -1332.999755859375 24.99971961975098 C -1332.999755859375 25.01109504699707 -1332.999755859375 25.02271842956543 -1332.999755859375 25.03409004211426 L -1329.81787109375 22.26802062988281 L -1328.308471679688 20.955810546875 L -1326.996337890625 22.4653205871582 L -1320.084594726562 30.41655158996582 M -1310 50 C -1313.375 50 -1316.649047851562 49.3389892578125 -1319.731079101562 48.03533172607422 C -1322.7080078125 46.77618026733398 -1325.381591796875 44.97354125976562 -1327.677612304688 42.67752838134766 C -1329.973510742188 40.38150024414062 -1331.776123046875 37.70787048339844 -1333.03515625 34.73088836669922 C -1334.3388671875 31.64864921569824 -1334.999755859375 28.37461090087891 -1334.999755859375 24.99971961975098 C -1334.999755859375 21.62482070922852 -1334.3388671875 18.35082054138184 -1333.03515625 15.26863956451416 C -1331.776123046875 12.29172992706299 -1329.973510742188 9.618160247802734 -1327.677612304688 7.322189807891846 C -1325.381591796875 5.026249885559082 -1322.7080078125 3.223690032958984 -1319.731079101562 1.964589953422546 C -1316.649047851562 0.6609799861907959 -1313.375 -3.552713678800501e-15 -1310 -3.552713678800501e-15 C -1306.625 -3.552713678800501e-15 -1303.350952148438 0.6609799861907959 -1300.268798828125 1.964589953422546 C -1297.291748046875 3.223700046539307 -1294.6181640625 5.026259899139404 -1292.322143554688 7.322189807891846 C -1290.026123046875 9.618160247802734 -1288.2236328125 12.29172992706299 -1286.96435546875 15.26863956451416 C -1285.66064453125 18.35077095031738 -1284.999755859375 21.62476921081543 -1284.999755859375 24.99971961975098 C -1284.999755859375 28.37467002868652 -1285.66064453125 31.64871025085449 -1286.96435546875 34.73088836669922 C -1288.2236328125 37.70787048339844 -1290.026123046875 40.38150024414062 -1292.322143554688 42.67752838134766 C -1294.6181640625 44.97352981567383 -1297.291748046875 46.77614974975586 -1300.268798828125 48.03533172607422 C -1303.350952148438 49.3389892578125 -1306.625 50 -1310 50 Z M -1328.505737304688 23.77741050720215 L -1331.8076171875 26.64784049987793 L -1323.583862304688 36.1085205078125 L -1322.74853515625 37.06925964355469 L -1322.318115234375 37.56427001953125 L -1320.736450195312 39.38338851928711 L -1291.491455078125 13.96123027801514 L -1294.338256835938 10.68636035919189 L -1320.281982421875 33.23807907104492 L -1328.505737304688 23.77741050720215 Z" stroke="none" fill="#fff"/>
  </g>
</svg>
